<?xml version="1.0" encoding="UTF-8"?>
<!DOCTYPE svg PUBLIC "-//W3C//DTD SVG 1.1//EN" "http://www.w3.org/Graphics/SVG/1.1/DTD/svg11.dtd">
<svg xmlns="http://www.w3.org/2000/svg" version="1.1" width="500px" height="500px" style="shape-rendering:geometricPrecision; text-rendering:geometricPrecision; image-rendering:optimizeQuality; fill-rule:evenodd; clip-rule:evenodd" xmlns:xlink="http://www.w3.org/1999/xlink">
<g><path style="opacity:1" fill="#38174a" d="M 341.5,195.5 C 340.603,194.402 339.77,194.402 339,195.5C 336.281,191.473 332.448,189.306 327.5,189C 327.957,188.586 328.291,188.086 328.5,187.5C 326.821,186.218 324.987,185.218 323,184.5C 322.55,182.481 321.717,180.648 320.5,179C 321.357,178.311 322.023,177.478 322.5,176.5C 320.978,169.676 321.312,163.009 323.5,156.5C 323.084,152.156 322.084,147.99 320.5,144C 316.75,144.058 316.417,142.391 319.5,139C 318.603,136.873 317.269,136.373 315.5,137.5C 316.609,139.214 315.942,139.881 313.5,139.5C 310.576,135.086 306.576,131.92 301.5,130C 290.959,127.264 280.626,123.931 270.5,120C 254.982,117.426 243.315,122.926 235.5,136.5C 233.855,137.479 232.521,138.812 231.5,140.5C 235.445,141.491 239.445,141.824 243.5,141.5C 242.942,142.79 241.942,143.623 240.5,144C 242.5,145 244.5,146 246.5,147C 244.61,147.206 242.61,148.039 240.5,149.5C 234.167,148.167 227.833,148.167 221.5,149.5C 220.773,148.517 221.107,147.517 222.5,146.5C 228.143,147.789 233.81,147.789 239.5,146.5C 234.167,145.833 228.833,145.167 223.5,144.5C 226.82,143.239 227.154,141.572 224.5,139.5C 223.305,141.297 221.638,142.297 219.5,142.5C 226.262,134.235 233.595,126.401 241.5,119C 250.975,112.924 261.308,110.924 272.5,113C 284.13,118.151 296.13,122.151 308.5,125C 315.831,129.14 320.665,135.307 323,143.5C 325.053,156.75 326.386,170.083 327,183.5C 330.42,185.246 333.587,187.413 336.5,190C 338.424,191.75 340.091,193.583 341.5,195.5 Z"/></g>
<g><path style="opacity:1" fill="#632a6d" d="M 313.5,139.5 C 313.833,140.167 314.167,140.833 314.5,141.5C 314.565,141.938 314.399,142.272 314,142.5C 311.404,138.61 307.904,135.777 303.5,134C 294.13,133.311 285.464,130.644 277.5,126C 261.846,120.643 249.179,124.809 239.5,138.5C 238.311,139.429 236.978,139.762 235.5,139.5C 235.5,138.5 235.5,137.5 235.5,136.5C 243.315,122.926 254.982,117.426 270.5,120C 280.626,123.931 290.959,127.264 301.5,130C 306.576,131.92 310.576,135.086 313.5,139.5 Z"/></g>
<g><path style="opacity:1" fill="#4c1859" d="M 314.5,141.5 C 316.263,148.956 317.096,156.622 317,164.5C 294.011,152.126 269.511,144.459 243.5,141.5C 239.445,141.824 235.445,141.491 231.5,140.5C 232.521,138.812 233.855,137.479 235.5,136.5C 235.5,137.5 235.5,138.5 235.5,139.5C 236.978,139.762 238.311,139.429 239.5,138.5C 249.179,124.809 261.846,120.643 277.5,126C 285.464,130.644 294.13,133.311 303.5,134C 307.904,135.777 311.404,138.61 314,142.5C 314.399,142.272 314.565,141.938 314.5,141.5 Z"/></g>
<g><path style="opacity:1" fill="#310d43" d="M 341.5,195.5 C 342.38,198.262 343.546,200.929 345,203.5C 345.543,206.868 345.376,210.201 344.5,213.5C 338.456,213.411 332.622,213.411 327,213.5C 324.929,209.879 322.429,209.546 319.5,212.5C 321.297,213.695 322.297,215.362 322.5,217.5C 318.681,217.472 317.681,219.138 319.5,222.5C 319.101,224.197 318.601,225.863 318,227.5C 317.29,226.027 316.124,225.36 314.5,225.5C 314.585,223.071 315.585,221.071 317.5,219.5C 317.519,215.766 317.519,212.099 317.5,208.5C 317.5,204.167 317.5,199.833 317.5,195.5C 316.652,193.907 315.319,192.74 313.5,192C 306.836,189.663 300.502,186.83 294.5,183.5C 286.666,180.999 278.666,179.332 270.5,178.5C 254.145,175.024 237.645,172.358 221,170.5C 215.969,169.662 213.135,171.662 212.5,176.5C 210.828,179.198 209.661,182.198 209,185.5C 208.151,193.421 208.651,201.254 210.5,209C 210.125,211.289 209.459,213.455 208.5,215.5C 207.523,218.287 207.19,221.287 207.5,224.5C 207.915,226.747 208.582,228.914 209.5,231C 209.167,231.833 208.833,232.667 208.5,233.5C 205.617,229.931 202.617,226.598 199.5,223.5C 198.118,218.236 199.118,213.236 202.5,208.5C 201.045,201.594 200.045,194.594 199.5,187.5C 194.429,184.974 189.762,181.974 185.5,178.5C 185.446,176.368 184.446,175.035 182.5,174.5C 182.264,171.391 182.597,168.391 183.5,165.5C 185.523,161.482 188.857,159.482 193.5,159.5C 194.583,159.539 195.583,159.873 196.5,160.5C 201.826,157.836 207.159,157.836 212.5,160.5C 214.167,160.333 215.833,160.167 217.5,160C 216.333,159.5 215.5,158.667 215,157.5C 213.23,159.418 211.063,159.918 208.5,159C 211,155.833 213.833,153 217,150.5C 218.118,148.235 218.951,145.901 219.5,143.5C 219.5,143.167 219.5,142.833 219.5,142.5C 221.638,142.297 223.305,141.297 224.5,139.5C 227.154,141.572 226.82,143.239 223.5,144.5C 228.833,145.167 234.167,145.833 239.5,146.5C 233.81,147.789 228.143,147.789 222.5,146.5C 221.107,147.517 220.773,148.517 221.5,149.5C 227.833,148.167 234.167,148.167 240.5,149.5C 242.61,148.039 244.61,147.206 246.5,147C 244.5,146 242.5,145 240.5,144C 241.942,143.623 242.942,142.79 243.5,141.5C 269.511,144.459 294.011,152.126 317,164.5C 317.096,156.622 316.263,148.956 314.5,141.5C 314.167,140.833 313.833,140.167 313.5,139.5C 315.942,139.881 316.609,139.214 315.5,137.5C 317.269,136.373 318.603,136.873 319.5,139C 316.417,142.391 316.75,144.058 320.5,144C 322.084,147.99 323.084,152.156 323.5,156.5C 321.312,163.009 320.978,169.676 322.5,176.5C 322.023,177.478 321.357,178.311 320.5,179C 321.717,180.648 322.55,182.481 323,184.5C 324.987,185.218 326.821,186.218 328.5,187.5C 328.291,188.086 327.957,188.586 327.5,189C 332.448,189.306 336.281,191.473 339,195.5C 339.77,194.402 340.603,194.402 341.5,195.5 Z"/></g>
<g><path style="opacity:1" fill="#60286b" d="M 222.5,150.5 C 250.63,149.033 277.296,154.533 302.5,167C 307.009,169.512 311.675,171.845 316.5,174C 318.245,175.692 318.578,177.525 317.5,179.5C 286.616,164.421 253.949,156.254 219.5,155C 220.386,153.385 221.386,151.885 222.5,150.5 Z"/></g>
<g><path style="opacity:1" fill="#462b55" d="M 219.5,143.5 C 218.951,145.901 218.118,148.235 217,150.5C 213.833,153 211,155.833 208.5,159C 211.063,159.918 213.23,159.418 215,157.5C 215.5,158.667 216.333,159.5 217.5,160C 215.833,160.167 214.167,160.333 212.5,160.5C 207.159,157.836 201.826,157.836 196.5,160.5C 195.583,159.873 194.583,159.539 193.5,159.5C 198.673,157.902 204.006,156.402 209.5,155C 212.325,150.678 215.659,146.845 219.5,143.5 Z"/></g>
<g><path style="opacity:1" fill="#4e1a5b" d="M 207.5,161.5 C 246.572,160.455 283.572,168.621 318.5,186C 326.925,190.937 334.592,196.77 341.5,203.5C 309.964,184.034 275.297,171.868 237.5,167C 224.251,165.028 210.918,164.028 197.5,164C 200.991,163.262 204.325,162.429 207.5,161.5 Z"/></g>
<g><path style="opacity:0.447" fill="#857294" d="M 183.5,165.5 C 182.597,168.391 182.264,171.391 182.5,174.5C 181.842,173.207 181.508,171.707 181.5,170C 181.569,168.014 182.235,166.514 183.5,165.5 Z"/></g>
<g><path style="opacity:0.329" fill="#ae9fb3" d="M 182.5,174.5 C 184.446,175.035 185.446,176.368 185.5,178.5C 184.026,177.564 183.026,176.23 182.5,174.5 Z"/></g>
<g><path style="opacity:1" fill="#3b2149" d="M 270.5,178.5 C 278.666,179.332 286.666,180.999 294.5,183.5C 300.502,186.83 306.836,189.663 313.5,192C 315.319,192.74 316.652,193.907 317.5,195.5C 302.186,188.84 286.519,183.173 270.5,178.5 Z"/></g>
<g><path style="opacity:1" fill="#f4e7db" d="M 239.5,180.5 C 239.833,180.5 240.167,180.5 240.5,180.5C 241.936,181.429 243.269,182.595 244.5,184C 245.784,184.684 246.951,184.517 248,183.5C 248.991,184.939 250.324,185.939 252,186.5C 255.304,185.203 258.804,185.37 262.5,187C 260.584,188.817 258.251,189.984 255.5,190.5C 253.976,196.067 254.643,196.567 257.5,192C 258.944,191.219 260.277,191.386 261.5,192.5C 255.726,199.994 254.059,208.327 256.5,217.5C 259.982,217.873 262.982,216.873 265.5,214.5C 266.409,216.845 268.075,219.178 270.5,221.5C 271.5,221.167 272.167,220.5 272.5,219.5C 270.833,218.167 269.167,216.833 267.5,215.5C 268.18,214.14 268.847,212.807 269.5,211.5C 270.167,211.5 270.833,211.5 271.5,211.5C 272.858,213.873 274.358,216.206 276,218.5C 276.333,218.167 276.667,217.833 277,217.5C 278.509,218.09 280.009,218.756 281.5,219.5C 279.146,221.188 277.146,223.188 275.5,225.5C 274.094,225.973 273.427,226.973 273.5,228.5C 269.554,231.492 265.887,234.825 262.5,238.5C 261.808,237.975 261.308,237.308 261,236.5C 260.577,237.956 259.744,238.456 258.5,238C 255.924,230.865 253.424,223.698 251,216.5C 250.329,215.748 249.496,215.414 248.5,215.5C 247.264,213.957 245.598,212.957 243.5,212.5C 243.167,211.667 242.833,210.833 242.5,210C 244.543,203.634 243.543,197.968 239.5,193C 239.833,192.667 240.167,192.333 240.5,192C 237.304,189.083 233.637,187.749 229.5,188C 230.833,188.667 232.167,189.333 233.5,190C 230.635,190.183 227.969,190.683 225.5,191.5C 224.25,193.154 222.916,194.821 221.5,196.5C 219.983,196.511 218.816,197.177 218,198.5C 217.116,206.403 215.949,206.403 214.5,198.5C 213.02,196.78 211.686,194.947 210.5,193C 211.068,189.158 211.735,185.325 212.5,181.5C 213.48,185.134 214.813,188.467 216.5,191.5C 217.675,191.719 218.675,191.386 219.5,190.5C 216.752,187.339 215.419,183.673 215.5,179.5C 218.394,179.042 220.894,179.709 223,181.5C 227.714,179.011 232.38,179.011 237,181.5C 237.671,180.748 238.504,180.414 239.5,180.5 Z"/></g>
<g><path style="opacity:1" fill="#f2e5dc" d="M 240.5,180.5 C 259.911,182.819 278.578,187.985 296.5,196C 306.542,200.58 309.375,208.08 305,218.5C 299.707,226.127 293.374,232.794 286,238.5C 284.015,244.732 282.349,251.066 281,257.5C 280.617,258.056 280.117,258.389 279.5,258.5C 277.151,258.542 275.818,257.375 275.5,255C 276.871,252.681 277.538,250.181 277.5,247.5C 278.071,242.781 280.238,239.114 284,236.5C 286.087,229.407 283.254,225.741 275.5,225.5C 277.146,223.188 279.146,221.188 281.5,219.5C 280.009,218.756 278.509,218.09 277,217.5C 276.667,217.833 276.333,218.167 276,218.5C 274.358,216.206 272.858,213.873 271.5,211.5C 274.439,211.918 276.772,213.418 278.5,216C 279.5,216.667 280.5,216.667 281.5,216C 286.71,200.053 281.043,192.887 264.5,194.5C 258.179,199.291 255.679,205.624 257,213.5C 257.804,214.804 258.971,215.471 260.5,215.5C 263.112,213.362 266.112,212.029 269.5,211.5C 268.847,212.807 268.18,214.14 267.5,215.5C 269.167,216.833 270.833,218.167 272.5,219.5C 272.167,220.5 271.5,221.167 270.5,221.5C 268.075,219.178 266.409,216.845 265.5,214.5C 262.982,216.873 259.982,217.873 256.5,217.5C 254.059,208.327 255.726,199.994 261.5,192.5C 260.277,191.386 258.944,191.219 257.5,192C 254.643,196.567 253.976,196.067 255.5,190.5C 258.251,189.984 260.584,188.817 262.5,187C 258.804,185.37 255.304,185.203 252,186.5C 250.324,185.939 248.991,184.939 248,183.5C 246.951,184.517 245.784,184.684 244.5,184C 243.269,182.595 241.936,181.429 240.5,180.5 Z"/></g>
<g><path style="opacity:0.953" fill="#472f53" d="M 341.5,195.5 C 346.378,199.293 348.211,204.293 347,210.5C 346.623,211.942 345.79,212.942 344.5,213.5C 345.376,210.201 345.543,206.868 345,203.5C 343.546,200.929 342.38,198.262 341.5,195.5 Z"/></g>
<g><path style="opacity:1" fill="#361c41" d="M 271.5,211.5 C 270.833,211.5 270.167,211.5 269.5,211.5C 266.112,212.029 263.112,213.362 260.5,215.5C 258.971,215.471 257.804,214.804 257,213.5C 255.679,205.624 258.179,199.291 264.5,194.5C 281.043,192.887 286.71,200.053 281.5,216C 280.5,216.667 279.5,216.667 278.5,216C 276.772,213.418 274.439,211.918 271.5,211.5 Z"/></g>
<g><path style="opacity:1" fill="#2e0a44" d="M 269.5,194.5 C 272.995,196.13 276.495,197.797 280,199.5C 280.435,204.184 280.935,208.851 281.5,213.5C 279.284,213.725 277.617,212.892 276.5,211C 274.5,210.833 272.5,210.667 270.5,210.5C 266.205,210.492 262.205,211.492 258.5,213.5C 258.338,211.473 258.505,209.473 259,207.5C 261.269,203.962 263.269,200.295 265,196.5C 266.622,195.901 268.122,195.234 269.5,194.5 Z"/></g>
<g><path style="opacity:1" fill="#c1b2ba" d="M 270.5,178.5 C 286.519,183.173 302.186,188.84 317.5,195.5C 317.5,199.833 317.5,204.167 317.5,208.5C 315.781,220.933 310.114,231.267 300.5,239.5C 297.447,240.777 294.614,242.444 292,244.5C 290.18,250.105 288.68,255.772 287.5,261.5C 282.506,269.14 275.506,274.14 266.5,276.5C 272.197,273.297 276.364,268.631 279,262.5C 279.49,261.207 279.657,259.873 279.5,258.5C 280.117,258.389 280.617,258.056 281,257.5C 282.349,251.066 284.015,244.732 286,238.5C 293.374,232.794 299.707,226.127 305,218.5C 309.375,208.08 306.542,200.58 296.5,196C 278.578,187.985 259.911,182.819 240.5,180.5C 240.167,180.5 239.833,180.5 239.5,180.5C 234.372,179.005 229.038,177.839 223.5,177C 219.848,176.501 216.182,176.335 212.5,176.5C 213.135,171.662 215.969,169.662 221,170.5C 237.645,172.358 254.145,175.024 270.5,178.5 Z"/></g>
<g><path style="opacity:1" fill="#412352" d="M 317.5,208.5 C 317.519,212.099 317.519,215.766 317.5,219.5C 315.585,221.071 314.585,223.071 314.5,225.5C 316.124,225.36 317.29,226.027 318,227.5C 318.601,225.863 319.101,224.197 319.5,222.5C 317.681,219.138 318.681,217.472 322.5,217.5C 322.297,215.362 321.297,213.695 319.5,212.5C 322.429,209.546 324.929,209.879 327,213.5C 332.622,213.411 338.456,213.411 344.5,213.5C 343.025,215.41 341.025,216.576 338.5,217C 333.563,218.085 328.563,218.752 323.5,219C 320.119,231.617 312.785,241.117 301.5,247.5C 303.594,246.402 305.261,244.235 306.5,241C 306.37,239.941 305.87,239.108 305,238.5C 303.644,239.38 302.144,239.714 300.5,239.5C 310.114,231.267 315.781,220.933 317.5,208.5 Z"/></g>
<g><path style="opacity:1" fill="#efe2db" d="M 212.5,176.5 C 216.182,176.335 219.848,176.501 223.5,177C 229.038,177.839 234.372,179.005 239.5,180.5C 238.504,180.414 237.671,180.748 237,181.5C 232.38,179.011 227.714,179.011 223,181.5C 220.894,179.709 218.394,179.042 215.5,179.5C 215.419,183.673 216.752,187.339 219.5,190.5C 218.675,191.386 217.675,191.719 216.5,191.5C 214.813,188.467 213.48,185.134 212.5,181.5C 211.735,185.325 211.068,189.158 210.5,193C 211.686,194.947 213.02,196.78 214.5,198.5C 215.949,206.403 217.116,206.403 218,198.5C 218.816,197.177 219.983,196.511 221.5,196.5C 219.176,199.734 217.843,203.401 217.5,207.5C 217.529,209.029 218.196,210.196 219.5,211C 223.609,209.659 227.943,209.326 232.5,210C 237.365,216.323 240.365,215.49 241.5,207.5C 241.839,196.505 236.505,191.172 225.5,191.5C 227.969,190.683 230.635,190.183 233.5,190C 232.167,189.333 230.833,188.667 229.5,188C 233.637,187.749 237.304,189.083 240.5,192C 240.167,192.333 239.833,192.667 239.5,193C 243.543,197.968 244.543,203.634 242.5,210C 242.833,210.833 243.167,211.667 243.5,212.5C 245.598,212.957 247.264,213.957 248.5,215.5C 249.496,215.414 250.329,215.748 251,216.5C 253.424,223.698 255.924,230.865 258.5,238C 259.744,238.456 260.577,237.956 261,236.5C 261.308,237.308 261.808,237.975 262.5,238.5C 265.887,234.825 269.554,231.492 273.5,228.5C 278.048,230.602 278.382,233.102 274.5,236C 260.167,243.69 245.5,244.357 230.5,238C 227.333,235.5 224.167,233 221,230.5C 220.51,229.207 220.343,227.873 220.5,226.5C 223.68,226.824 224.847,225.49 224,222.5C 221.758,220.285 219.258,219.952 216.5,221.5C 214.418,221.528 212.584,220.861 211,219.5C 209.956,220.623 209.29,221.956 209,223.5C 208.503,220.854 208.336,218.187 208.5,215.5C 209.459,213.455 210.125,211.289 210.5,209C 208.651,201.254 208.151,193.421 209,185.5C 209.661,182.198 210.828,179.198 212.5,176.5 Z"/></g>
<g><path style="opacity:1" fill="#331346" d="M 225.5,191.5 C 236.505,191.172 241.839,196.505 241.5,207.5C 240.365,215.49 237.365,216.323 232.5,210C 227.943,209.326 223.609,209.659 219.5,211C 218.196,210.196 217.529,209.029 217.5,207.5C 217.843,203.401 219.176,199.734 221.5,196.5C 222.916,194.821 224.25,193.154 225.5,191.5 Z"/></g>
<g><path style="opacity:0.984" fill="#826c88" d="M 144.5,217.5 C 142.195,218.323 140.195,219.656 138.5,221.5C 138.759,217.932 140.759,216.599 144.5,217.5 Z"/></g>
<g><path style="opacity:1" fill="#241527" d="M 149.5,222.5 C 158.986,221.506 168.652,221.173 178.5,221.5C 178.667,236.17 178.5,250.837 178,265.5C 177.826,270.351 177.326,275.018 176.5,279.5C 177.572,260.493 177.572,241.493 176.5,222.5C 167.5,222.5 158.5,222.5 149.5,222.5 Z"/></g>
<g><path style="opacity:1" fill="#3a1f48" d="M 248.5,215.5 C 248.5,216.167 248.5,216.833 248.5,217.5C 252.165,221 253.332,225.334 252,230.5C 249.956,231.772 248.122,231.439 246.5,229.5C 242.805,232.546 240.472,231.713 239.5,227C 239.804,220.827 242.804,216.994 248.5,215.5 Z"/></g>
<g><path style="opacity:1" fill="#2e0b46" d="M 248.5,217.5 C 248.643,219.262 248.309,220.929 247.5,222.5C 250.338,223.512 251.671,225.512 251.5,228.5C 243.897,230.582 241.064,227.915 243,220.5C 244.264,218.393 246.097,217.393 248.5,217.5 Z"/></g>
<g><path style="opacity:1" fill="#300d45" d="M 130.5,237.5 C 130.44,240.021 131.106,242.354 132.5,244.5C 132.167,245.167 131.833,245.833 131.5,246.5C 130.583,245.873 129.583,245.539 128.5,245.5C 128.5,245.167 128.5,244.833 128.5,244.5C 128.749,240.886 126.749,238.719 122.5,238C 123.167,236.667 123.833,235.333 124.5,234C 123.906,233.536 123.239,233.369 122.5,233.5C 123.088,231.795 123.421,230.128 123.5,228.5C 125.632,227.402 127.798,226.402 130,225.5C 130.692,226.025 131.192,226.692 131.5,227.5C 126.376,228.363 125.209,231.03 128,235.5C 128.708,236.381 129.542,237.047 130.5,237.5 Z"/></g>
<g><path style="opacity:1" fill="#b1b594" d="M 139.5,227.5 C 139.192,231.009 137.192,232.676 133.5,232.5C 135.366,241.256 138.533,249.589 143,257.5C 143.49,258.793 143.657,260.127 143.5,261.5C 143.158,262.338 142.492,262.672 141.5,262.5C 138.03,253.91 134.363,245.577 130.5,237.5C 130.039,235.45 129.372,233.45 128.5,231.5C 131.727,228.98 135.393,227.646 139.5,227.5 Z"/></g>
<g><path style="opacity:1" fill="#615852" d="M 139.5,227.5 C 140.617,231.295 141.283,235.295 141.5,239.5C 140.142,238.374 138.808,238.374 137.5,239.5C 139.275,244.044 141.275,248.377 143.5,252.5C 144.833,255.5 144.833,258.5 143.5,261.5C 143.657,260.127 143.49,258.793 143,257.5C 138.533,249.589 135.366,241.256 133.5,232.5C 137.192,232.676 139.192,231.009 139.5,227.5 Z"/></g>
<g><path style="opacity:1" fill="#4b3058" d="M 122.5,233.5 C 123.239,233.369 123.906,233.536 124.5,234C 123.833,235.333 123.167,236.667 122.5,238C 126.749,238.719 128.749,240.886 128.5,244.5C 127.609,243.739 126.942,242.739 126.5,241.5C 125.042,240.218 123.708,240.218 122.5,241.5C 121.596,240.791 121.263,239.791 121.5,238.5C 114.984,239.723 114.984,241.556 121.5,244C 120.577,246.048 121.077,247.881 123,249.5C 123.494,247.866 123.66,246.199 123.5,244.5C 125.326,246.147 126.66,248.147 127.5,250.5C 126.325,250.281 125.325,250.614 124.5,251.5C 124.456,254.899 126.456,256.565 130.5,256.5C 130.703,258.39 130.037,259.89 128.5,261C 130.619,261.342 130.953,262.175 129.5,263.5C 124.797,255.286 119.463,247.453 113.5,240C 113.645,239.228 113.978,238.561 114.5,238C 116.871,237.265 119.205,236.432 121.5,235.5C 122.298,235.043 122.631,234.376 122.5,233.5 Z"/></g>
<g><path style="opacity:1" fill="#6d6f4f" d="M 173.5,267.5 C 173.5,254.167 173.5,240.833 173.5,227.5C 171.265,227.205 169.265,227.539 167.5,228.5C 163.5,228.5 159.5,228.5 155.5,228.5C 155.768,230.099 155.434,231.432 154.5,232.5C 154.5,231.167 154.5,229.833 154.5,228.5C 152.833,228.5 151.167,228.5 149.5,228.5C 149.5,230.5 149.5,232.5 149.5,234.5C 148.734,232.316 148.067,229.982 147.5,227.5C 156.417,225.838 165.417,225.171 174.5,225.5C 174.829,239.677 174.496,253.677 173.5,267.5 Z"/></g>
<g><path style="opacity:1" fill="#2c0d45" d="M 122.5,241.5 C 123.11,242.391 123.443,243.391 123.5,244.5C 123.66,246.199 123.494,247.866 123,249.5C 121.077,247.881 120.577,246.048 121.5,244C 114.984,241.556 114.984,239.723 121.5,238.5C 121.263,239.791 121.596,240.791 122.5,241.5 Z"/></g>
<g><path style="opacity:1" fill="#9b9985" d="M 128.5,244.5 C 128.5,244.833 128.5,245.167 128.5,245.5C 132.227,251.936 135.061,258.603 137,265.5C 133.796,260.403 130.629,255.403 127.5,250.5C 126.66,248.147 125.326,246.147 123.5,244.5C 123.443,243.391 123.11,242.391 122.5,241.5C 123.708,240.218 125.042,240.218 126.5,241.5C 126.942,242.739 127.609,243.739 128.5,244.5 Z"/></g>
<g><path style="opacity:1" fill="#cacab2" d="M 169.5,269.5 C 169.16,267.321 168.16,265.488 166.5,264C 166.728,263.601 167.062,263.435 167.5,263.5C 170.254,261.947 171.087,259.614 170,256.5C 167.705,253.935 164.872,252.269 161.5,251.5C 161.833,250.5 162.5,249.833 163.5,249.5C 166.855,251.156 168.855,250.156 169.5,246.5C 170.833,243.167 170.833,239.833 169.5,236.5C 169.987,235.527 170.487,234.527 171,233.5C 171.667,247.5 171.667,261.5 171,275.5C 170.809,273.292 170.309,271.292 169.5,269.5 Z"/></g>
<g><path style="opacity:0.553" fill="#816f8e" d="M 301.5,247.5 C 298.553,248.723 297.553,250.723 298.5,253.5C 296.974,252.895 295.974,251.729 295.5,250C 297.333,249.5 298.5,248.333 299,246.5C 299.671,247.252 300.504,247.586 301.5,247.5 Z"/></g>
<g><path style="opacity:1" fill="#b3b899" d="M 149.5,222.5 C 158.5,222.5 167.5,222.5 176.5,222.5C 177.572,241.493 177.572,260.493 176.5,279.5C 176.5,281.5 176.5,283.5 176.5,285.5C 175.842,286.398 175.176,287.398 174.5,288.5C 173.893,288.376 173.56,288.043 173.5,287.5C 172.559,280.872 172.559,274.206 173.5,267.5C 174.496,253.677 174.829,239.677 174.5,225.5C 165.417,225.171 156.417,225.838 147.5,227.5C 148.067,229.982 148.734,232.316 149.5,234.5C 150.238,242.552 151.238,250.552 152.5,258.5C 151.5,258.5 150.5,258.5 149.5,258.5C 148.381,249.789 147.048,241.122 145.5,232.5C 145.5,229.5 145.5,226.5 145.5,223.5C 146.568,222.566 147.901,222.232 149.5,222.5 Z"/></g>
<g><path style="opacity:1" fill="#b3b98d" d="M 167.5,228.5 C 167.297,230.39 167.963,231.89 169.5,233C 167.073,234.554 167.073,235.721 169.5,236.5C 170.833,239.833 170.833,243.167 169.5,246.5C 166.775,246.055 164.608,244.722 163,242.5C 160.344,244.486 157.677,246.486 155,248.5C 154.667,249.833 154.333,251.167 154,252.5C 153.725,246.911 152.891,241.411 151.5,236C 151.318,233.696 151.984,233.196 153.5,234.5C 154.298,234.043 154.631,233.376 154.5,232.5C 155.434,231.432 155.768,230.099 155.5,228.5C 159.5,228.5 163.5,228.5 167.5,228.5 Z"/></g>
<g><path style="opacity:1" fill="#4a4040" d="M 154.5,232.5 C 154.631,233.376 154.298,234.043 153.5,234.5C 151.984,233.196 151.318,233.696 151.5,236C 152.891,241.411 153.725,246.911 154,252.5C 154.333,251.167 154.667,249.833 155,248.5C 157.677,246.486 160.344,244.486 163,242.5C 164.608,244.722 166.775,246.055 169.5,246.5C 168.855,250.156 166.855,251.156 163.5,249.5C 162.5,249.833 161.833,250.5 161.5,251.5C 164.872,252.269 167.705,253.935 170,256.5C 171.087,259.614 170.254,261.947 167.5,263.5C 168.39,261.218 168.556,258.885 168,256.5C 166.644,255.62 165.144,255.286 163.5,255.5C 163.5,256.5 163.5,257.5 163.5,258.5C 160.289,257.987 157.456,256.654 155,254.5C 154.51,255.793 154.343,257.127 154.5,258.5C 156.099,258.232 157.432,258.566 158.5,259.5C 155.287,259.81 152.287,259.477 149.5,258.5C 150.5,258.5 151.5,258.5 152.5,258.5C 151.238,250.552 150.238,242.552 149.5,234.5C 149.5,232.5 149.5,230.5 149.5,228.5C 151.167,228.5 152.833,228.5 154.5,228.5C 154.5,229.833 154.5,231.167 154.5,232.5 Z"/></g>
<g><path style="opacity:1" fill="#341746" d="M 273.5,228.5 C 273.427,226.973 274.094,225.973 275.5,225.5C 283.254,225.741 286.087,229.407 284,236.5C 280.238,239.114 278.071,242.781 277.5,247.5C 275.627,251.237 273.461,254.904 271,258.5C 270.184,259.823 269.017,260.489 267.5,260.5C 259.472,263.96 251.305,264.294 243,261.5C 240.744,263.085 238.244,263.752 235.5,263.5C 228.555,262.611 223.721,258.945 221,252.5C 219.688,243.408 217.188,234.742 213.5,226.5C 214.092,224.577 215.092,222.911 216.5,221.5C 219.258,219.952 221.758,220.285 224,222.5C 224.847,225.49 223.68,226.824 220.5,226.5C 220.343,227.873 220.51,229.207 221,230.5C 224.167,233 227.333,235.5 230.5,238C 245.5,244.357 260.167,243.69 274.5,236C 278.382,233.102 278.048,230.602 273.5,228.5 Z"/></g>
<g><path style="opacity:1" fill="#f9f6ee" d="M 233.5,245.5 C 236.786,246.207 240.119,246.54 243.5,246.5C 243.5,250.5 243.5,254.5 243.5,258.5C 240.193,258.937 237.193,258.27 234.5,256.5C 233.511,252.893 233.177,249.226 233.5,245.5 Z"/></g>
<g><path style="opacity:1" fill="#f1eae9" d="M 269.5,243.5 C 270.675,243.281 271.675,243.614 272.5,244.5C 270.923,249.691 267.923,253.691 263.5,256.5C 263.167,256 262.833,255.5 262.5,255C 263.811,251.569 264.811,248.069 265.5,244.5C 267.099,244.768 268.432,244.434 269.5,243.5 Z"/></g>
<g><path style="opacity:1" fill="#9a85a1" d="M 252.5,247.5 C 254.948,246.527 257.615,246.194 260.5,246.5C 260.768,248.099 260.434,249.432 259.5,250.5C 259.5,249.5 259.5,248.5 259.5,247.5C 257.167,247.5 254.833,247.5 252.5,247.5 Z"/></g>
<g><path style="opacity:1" fill="#eeeae5" d="M 223.5,240.5 C 225.258,240.877 226.925,241.544 228.5,242.5C 229.66,246.459 229.827,250.459 229,254.5C 225.393,250.593 223.56,245.926 223.5,240.5 Z"/></g>
<g><path style="opacity:1" fill="#392143" d="M 137.5,221.5 C 135.889,223.095 133.889,224.261 131.5,225C 135.313,227.596 137.813,226.763 139,222.5C 140.507,223.505 141.673,224.838 142.5,226.5C 143.735,225.66 144.735,224.66 145.5,223.5C 145.5,226.5 145.5,229.5 145.5,232.5C 143.876,230.863 142.876,231.197 142.5,233.5C 144.024,243.452 145.024,253.452 145.5,263.5C 143.901,263.768 142.568,263.434 141.5,262.5C 142.492,262.672 143.158,262.338 143.5,261.5C 144.833,258.5 144.833,255.5 143.5,252.5C 143.156,248.106 142.49,243.772 141.5,239.5C 141.283,235.295 140.617,231.295 139.5,227.5C 135.393,227.646 131.727,228.98 128.5,231.5C 129.372,233.45 130.039,235.45 130.5,237.5C 129.542,237.047 128.708,236.381 128,235.5C 125.209,231.03 126.376,228.363 131.5,227.5C 131.192,226.692 130.692,226.025 130,225.5C 127.798,226.402 125.632,227.402 123.5,228.5C 123.421,230.128 123.088,231.795 122.5,233.5C 120.552,231.68 119.552,229.346 119.5,226.5C 125.504,224.831 131.504,223.164 137.5,221.5 Z"/></g>
<g><path style="opacity:1" fill="#9e988e" d="M 163.5,258.5 C 164.751,259.472 164.418,260.139 162.5,260.5C 161.151,260.154 159.817,259.821 158.5,259.5C 157.432,258.566 156.099,258.232 154.5,258.5C 154.343,257.127 154.51,255.793 155,254.5C 157.456,256.654 160.289,257.987 163.5,258.5 Z"/></g>
<g><path style="opacity:1" fill="#341644" d="M 145.5,232.5 C 147.048,241.122 148.381,249.789 149.5,258.5C 152.287,259.477 155.287,259.81 158.5,259.5C 159.817,259.821 161.151,260.154 162.5,260.5C 164.418,260.139 164.751,259.472 163.5,258.5C 163.5,257.5 163.5,256.5 163.5,255.5C 165.144,255.286 166.644,255.62 168,256.5C 168.556,258.885 168.39,261.218 167.5,263.5C 167.062,263.435 166.728,263.601 166.5,264C 168.16,265.488 169.16,267.321 169.5,269.5C 169.336,272.187 169.503,274.854 170,277.5C 170.759,281.138 171.925,284.471 173.5,287.5C 173.56,288.043 173.893,288.376 174.5,288.5C 175.176,287.398 175.842,286.398 176.5,285.5C 176.938,288.893 176.105,291.893 174,294.5C 172.516,290.649 170.516,286.982 168,283.5C 167.601,283.728 167.435,284.062 167.5,284.5C 167.163,280.989 165.163,278.822 161.5,278C 156.944,277.611 152.61,278.445 148.5,280.5C 149.747,283.329 151.247,285.995 153,288.5C 157.56,285.576 162.393,284.91 167.5,286.5C 167.196,287.15 166.863,287.817 166.5,288.5C 167.522,289.354 168.355,290.354 169,291.5C 169.236,293.764 169.736,295.931 170.5,298C 169.956,298.717 169.289,299.217 168.5,299.5C 170.023,293.368 167.69,290.035 161.5,289.5C 153.784,290.04 152.45,293.207 157.5,299C 159.134,299.494 160.801,299.66 162.5,299.5C 159.547,300.004 156.714,301.004 154,302.5C 153.56,304.076 152.727,305.41 151.5,306.5C 152.853,307.524 153.52,308.857 153.5,310.5C 154.5,310.5 155.5,310.5 156.5,310.5C 156.946,313.01 156.28,315.01 154.5,316.5C 154.5,314.833 154.5,313.167 154.5,311.5C 152.116,311.443 149.782,311.777 147.5,312.5C 145.893,312.363 144.559,311.696 143.5,310.5C 146.609,308.525 149.443,306.192 152,303.5C 153.072,299.891 152.239,296.891 149.5,294.5C 146.522,296.311 144.022,298.644 142,301.5C 141.333,299.5 141.333,297.5 142,295.5C 144.553,293.284 146.72,290.784 148.5,288C 146.393,279.781 143.393,279.448 139.5,287C 138.4,287.432 137.733,286.932 137.5,285.5C 137.719,284.062 138.219,282.729 139,281.5C 141.233,279.267 143.4,277.1 145.5,275C 144.327,273.495 143.161,271.995 142,270.5C 136.727,273.556 133.56,278.056 132.5,284C 134.455,293.988 136.955,303.821 140,313.5C 141.376,314.705 142.542,316.038 143.5,317.5C 139.81,316.745 137.976,314.412 138,310.5C 138.266,313.901 136.766,315.567 133.5,315.5C 130.172,307.914 127.839,299.914 126.5,291.5C 126.441,288.951 127.441,286.951 129.5,285.5C 124.919,280.43 125.919,277.097 132.5,275.5C 132.511,273.453 132.844,271.453 133.5,269.5C 133.405,267.131 132.405,265.464 130.5,264.5C 129.833,264.5 129.5,264.167 129.5,263.5C 130.953,262.175 130.619,261.342 128.5,261C 130.037,259.89 130.703,258.39 130.5,256.5C 126.456,256.565 124.456,254.899 124.5,251.5C 125.325,250.614 126.325,250.281 127.5,250.5C 130.629,255.403 133.796,260.403 137,265.5C 135.061,258.603 132.227,251.936 128.5,245.5C 129.583,245.539 130.583,245.873 131.5,246.5C 131.833,245.833 132.167,245.167 132.5,244.5C 131.106,242.354 130.44,240.021 130.5,237.5C 134.363,245.577 138.03,253.91 141.5,262.5C 142.568,263.434 143.901,263.768 145.5,263.5C 145.024,253.452 144.024,243.452 142.5,233.5C 142.876,231.197 143.876,230.863 145.5,232.5 Z"/></g>
<g><path style="opacity:1" fill="#adad90" d="M 141.5,239.5 C 142.49,243.772 143.156,248.106 143.5,252.5C 141.275,248.377 139.275,244.044 137.5,239.5C 138.808,238.374 140.142,238.374 141.5,239.5 Z"/></g>
<g><path style="opacity:1" fill="#574e49" d="M 173.5,267.5 C 172.559,274.206 172.559,280.872 173.5,287.5C 171.925,284.471 170.759,281.138 170,277.5C 169.503,274.854 169.336,272.187 169.5,269.5C 170.309,271.292 170.809,273.292 171,275.5C 171.667,261.5 171.667,247.5 171,233.5C 170.487,234.527 169.987,235.527 169.5,236.5C 167.073,235.721 167.073,234.554 169.5,233C 167.963,231.89 167.297,230.39 167.5,228.5C 169.265,227.539 171.265,227.205 173.5,227.5C 173.5,240.833 173.5,254.167 173.5,267.5 Z"/></g>
<g><path style="opacity:1" fill="#e9dad5" d="M 152.5,264.5 C 159.401,263.743 163.401,266.743 164.5,273.5C 158.702,273.662 153.036,273.662 147.5,273.5C 144.411,267.914 146.078,264.914 152.5,264.5 Z"/></g>
<g><path style="opacity:0.11" fill="#be99c4" d="M 213.5,271.5 C 215.552,272.053 215.885,273.053 214.5,274.5C 214.443,273.391 214.11,272.391 213.5,271.5 Z"/></g>
<g><path style="opacity:1" fill="#ede0d9" d="M 208.5,215.5 C 208.336,218.187 208.503,220.854 209,223.5C 209.29,221.956 209.956,220.623 211,219.5C 212.584,220.861 214.418,221.528 216.5,221.5C 215.092,222.911 214.092,224.577 213.5,226.5C 217.188,234.742 219.688,243.408 221,252.5C 223.721,258.945 228.555,262.611 235.5,263.5C 245.083,266.265 254.75,266.099 264.5,263C 265.942,262.623 266.942,261.79 267.5,260.5C 269.017,260.489 270.184,259.823 271,258.5C 273.461,254.904 275.627,251.237 277.5,247.5C 277.538,250.181 276.871,252.681 275.5,255C 275.818,257.375 277.151,258.542 279.5,258.5C 279.657,259.873 279.49,261.207 279,262.5C 276.364,268.631 272.197,273.297 266.5,276.5C 255.262,280.28 243.929,280.447 232.5,277C 224.667,273.833 219.167,268.333 216,260.5C 214.475,250.109 212.808,239.776 211,229.5C 210.303,227.416 209.136,225.749 207.5,224.5C 207.19,221.287 207.523,218.287 208.5,215.5 Z"/></g>
<g><path style="opacity:1" fill="#361d42" d="M 267.5,260.5 C 266.942,261.79 265.942,262.623 264.5,263C 254.75,266.099 245.083,266.265 235.5,263.5C 238.244,263.752 240.744,263.085 243,261.5C 251.305,264.294 259.472,263.96 267.5,260.5 Z"/></g>
<g><path style="opacity:1" fill="#f8f6ee" d="M 252.5,247.5 C 254.833,247.5 257.167,247.5 259.5,247.5C 259.5,248.5 259.5,249.5 259.5,250.5C 258.735,253.096 258.401,255.763 258.5,258.5C 254.445,258.824 250.445,258.491 246.5,257.5C 247.551,254.243 248.218,250.91 248.5,247.5C 249.833,247.5 251.167,247.5 252.5,247.5 Z"/></g>
<g><path style="opacity:1" fill="#331145" d="M 301.5,247.5 C 300.504,247.586 299.671,247.252 299,246.5C 298.5,248.333 297.333,249.5 295.5,250C 295.974,251.729 296.974,252.895 298.5,253.5C 302.801,254.657 306.801,256.49 310.5,259C 312.982,262.807 315.816,266.307 319,269.5C 333.289,274.82 345.622,283.154 356,294.5C 358.38,298.594 360.213,302.927 361.5,307.5C 360.778,307.918 360.278,308.584 360,309.5C 359.505,307.527 359.338,305.527 359.5,303.5C 358.5,303.5 357.5,303.5 356.5,303.5C 354.872,297.205 350.872,293.205 344.5,291.5C 335.484,285.075 325.651,280.075 315,276.5C 314.823,280.356 314.323,284.023 313.5,287.5C 311.946,291.91 310.446,296.577 309,301.5C 308.349,299.765 308.515,298.098 309.5,296.5C 308.972,294.664 308.306,292.997 307.5,291.5C 307.831,284.137 307.497,276.803 306.5,269.5C 293.23,291.082 279.23,312.082 264.5,332.5C 265.63,329.863 265.63,327.197 264.5,324.5C 268.192,324.305 270.026,322.305 270,318.5C 270.667,319.833 271.333,319.833 272,318.5C 273.495,316.89 273.661,315.224 272.5,313.5C 274.045,312.548 275.712,312.215 277.5,312.5C 278.876,309.342 279.542,306.009 279.5,302.5C 280.759,298.975 282.759,295.975 285.5,293.5C 289.749,290.336 289.415,287.836 284.5,286C 287.938,285.109 291.104,283.609 294,281.5C 294.798,279.741 294.631,278.074 293.5,276.5C 289.033,275.345 284.533,275.345 280,276.5C 278.272,276.546 276.772,276.046 275.5,275C 281.51,272.164 285.51,267.664 287.5,261.5C 288.68,255.772 290.18,250.105 292,244.5C 294.614,242.444 297.447,240.777 300.5,239.5C 302.144,239.714 303.644,239.38 305,238.5C 305.87,239.108 306.37,239.941 306.5,241C 305.261,244.235 303.594,246.402 301.5,247.5 Z"/></g>
<g><path style="opacity:1" fill="#cbbbc9" d="M 292.5,265.5 C 293.461,267.265 293.795,269.265 293.5,271.5C 291.801,271.66 290.134,271.494 288.5,271C 289.665,269.008 290.998,267.175 292.5,265.5 Z"/></g>
<g><path style="opacity:1" fill="#b09aae" d="M 299.5,261.5 C 301.951,263.916 302.117,266.583 300,269.5C 299.503,266.854 299.336,264.187 299.5,261.5 Z"/></g>
<g><path style="opacity:0.102" fill="#b6a0bd" d="M 129.5,272.5 C 129.573,274.027 128.906,275.027 127.5,275.5C 127.427,273.973 128.094,272.973 129.5,272.5 Z"/></g>
<g><path style="opacity:1" fill="#e5d6d2" d="M 167.5,284.5 C 167.5,285.167 167.5,285.833 167.5,286.5C 162.393,284.91 157.56,285.576 153,288.5C 151.247,285.995 149.747,283.329 148.5,280.5C 152.61,278.445 156.944,277.611 161.5,278C 165.163,278.822 167.163,280.989 167.5,284.5 Z"/></g>
<g><path style="opacity:1" fill="#4e185a" d="M 344.5,291.5 C 348.145,295.446 351.312,299.779 354,304.5C 357.639,317.607 360.139,330.94 361.5,344.5C 348.833,344.5 336.167,344.5 323.5,344.5C 323.648,329.243 326.648,314.576 332.5,300.5C 332.167,300.167 331.833,299.833 331.5,299.5C 326.333,302.845 322.833,307.511 321,313.5C 317.947,323.602 316.113,333.936 315.5,344.5C 303.322,344.828 291.322,344.495 279.5,343.5C 287.739,336.766 295.572,329.433 303,321.5C 302.6,318.509 301.433,315.676 299.5,313C 303.974,310.882 308.64,309.382 313.5,308.5C 313.5,301.5 313.5,294.5 313.5,287.5C 314.323,284.023 314.823,280.356 315,276.5C 325.651,280.075 335.484,285.075 344.5,291.5 Z"/></g>
<g><path style="opacity:1" fill="#331544" d="M 199.5,223.5 C 202.617,226.598 205.617,229.931 208.5,233.5C 208.833,232.667 209.167,231.833 209.5,231C 208.582,228.914 207.915,226.747 207.5,224.5C 209.136,225.749 210.303,227.416 211,229.5C 212.808,239.776 214.475,250.109 216,260.5C 219.167,268.333 224.667,273.833 232.5,277C 243.929,280.447 255.262,280.28 266.5,276.5C 275.506,274.14 282.506,269.14 287.5,261.5C 285.51,267.664 281.51,272.164 275.5,275C 276.772,276.046 278.272,276.546 280,276.5C 284.533,275.345 289.033,275.345 293.5,276.5C 294.631,278.074 294.798,279.741 294,281.5C 291.104,283.609 287.938,285.109 284.5,286C 289.415,287.836 289.749,290.336 285.5,293.5C 286.028,292.153 286.195,290.819 286,289.5C 279.115,293.066 271.949,294.732 264.5,294.5C 267.248,299.666 270.248,304.666 273.5,309.5C 275.523,307.147 277.523,304.814 279.5,302.5C 279.542,306.009 278.876,309.342 277.5,312.5C 275.712,312.215 274.045,312.548 272.5,313.5C 273.661,315.224 273.495,316.89 272,318.5C 271.333,319.833 270.667,319.833 270,318.5C 270.026,322.305 268.192,324.305 264.5,324.5C 265.63,327.197 265.63,329.863 264.5,332.5C 264.443,333.609 264.11,334.609 263.5,335.5C 262.503,335.53 261.836,335.03 261.5,334C 262.707,332.7 263.374,331.2 263.5,329.5C 261.508,329.328 259.842,329.995 258.5,331.5C 256.826,325.253 256.326,318.92 257,312.5C 257.383,313.056 257.883,313.389 258.5,313.5C 259.481,311.511 260.481,309.511 261.5,307.5C 261.167,306.833 260.833,306.167 260.5,305.5C 259.735,306.612 258.735,307.279 257.5,307.5C 258.833,303.5 258.833,299.5 257.5,295.5C 257.586,294.504 257.252,293.671 256.5,293C 248.99,290.806 244.99,293.806 244.5,302C 245.632,306.413 245.799,310.913 245,315.5C 244.583,316.756 243.75,317.423 242.5,317.5C 242.383,315.516 243.05,313.85 244.5,312.5C 243.349,310.227 242.349,307.894 241.5,305.5C 238.111,307.925 236.778,311.258 237.5,315.5C 237.724,318.855 238.057,322.188 238.5,325.5C 238.565,325.938 238.399,326.272 238,326.5C 236.199,320.628 235.032,314.628 234.5,308.5C 237.47,308.254 238.803,306.588 238.5,303.5C 237.5,303.5 236.5,303.5 235.5,303.5C 235.79,297.439 235.457,291.439 234.5,285.5C 238.094,283.969 241.761,282.635 245.5,281.5C 242.164,280.76 238.83,280.094 235.5,279.5C 234.914,279.709 234.414,280.043 234,280.5C 230.427,277.388 226.26,275.388 221.5,274.5C 221.738,278.099 220.738,278.433 218.5,275.5C 216.253,276.374 213.92,276.708 211.5,276.5C 212.29,275.599 213.29,274.932 214.5,274.5C 215.885,273.053 215.552,272.053 213.5,271.5C 211.533,268.784 210.033,265.784 209,262.5C 208,253.5 207,244.5 206,235.5C 204.559,232.724 202.726,230.224 200.5,228C 199.852,226.56 199.519,225.06 199.5,223.5 Z"/></g>
<g><path style="opacity:1" fill="#bfb0be" d="M 286.5,276.5 C 288.927,276.523 291.26,277.023 293.5,278C 288.426,281.913 282.926,285.08 277,287.5C 276.333,284.833 276.333,282.167 277,279.5C 280.134,278.091 283.301,277.091 286.5,276.5 Z"/></g>
<g><path style="opacity:1" fill="#4e185a" d="M 307.5,291.5 C 306.979,295.172 306.313,298.838 305.5,302.5C 300.437,303.965 295.437,305.632 290.5,307.5C 290.453,311.87 291.786,316.036 294.5,320C 286.467,329.034 277.8,337.367 268.5,345C 264.459,345.827 260.459,345.66 256.5,344.5C 259.084,341.651 261.417,338.651 263.5,335.5C 264.11,334.609 264.443,333.609 264.5,332.5C 279.23,312.082 293.23,291.082 306.5,269.5C 307.497,276.803 307.831,284.137 307.5,291.5 Z"/></g>
<g><path style="opacity:1" fill="#4c315f" d="M 130.5,264.5 C 132.405,265.464 133.405,267.131 133.5,269.5C 132.844,271.453 132.511,273.453 132.5,275.5C 125.919,277.097 124.919,280.43 129.5,285.5C 127.441,286.951 126.441,288.951 126.5,291.5C 125.352,287.019 125.185,282.352 126,277.5C 126.278,276.584 126.778,275.918 127.5,275.5C 128.906,275.027 129.573,274.027 129.5,272.5C 130.29,271.206 131.29,270.039 132.5,269C 131.418,267.67 130.751,266.17 130.5,264.5 Z"/></g>
<g><path style="opacity:1" fill="#492b59" d="M 211.5,276.5 C 210.294,279.298 208.294,281.465 205.5,283C 206.858,283.934 208.192,284.768 209.5,285.5C 208.5,286.167 207.5,286.833 206.5,287.5C 205.596,286.791 205.263,285.791 205.5,284.5C 201.543,286.473 197.876,288.806 194.5,291.5C 198.626,284.704 204.293,279.704 211.5,276.5 Z"/></g>
<g><path style="opacity:1" fill="#e6d7d8" d="M 236.5,285.5 C 241.238,284.742 245.238,286.075 248.5,289.5C 243.766,293.065 239.933,297.399 237,302.5C 236.501,296.843 236.334,291.176 236.5,285.5 Z"/></g>
<g><path style="opacity:1" fill="#e6d7d4" d="M 154.5,316.5 C 151.545,317.159 148.545,317.492 145.5,317.5C 144.833,317.5 144.167,317.5 143.5,317.5C 142.542,316.038 141.376,314.705 140,313.5C 136.955,303.821 134.455,293.988 132.5,284C 133.56,278.056 136.727,273.556 142,270.5C 143.161,271.995 144.327,273.495 145.5,275C 143.4,277.1 141.233,279.267 139,281.5C 138.219,282.729 137.719,284.062 137.5,285.5C 137.733,286.932 138.4,287.432 139.5,287C 143.393,279.448 146.393,279.781 148.5,288C 146.72,290.784 144.553,293.284 142,295.5C 141.333,297.5 141.333,299.5 142,301.5C 144.022,298.644 146.522,296.311 149.5,294.5C 152.239,296.891 153.072,299.891 152,303.5C 149.443,306.192 146.609,308.525 143.5,310.5C 144.559,311.696 145.893,312.363 147.5,312.5C 149.782,311.777 152.116,311.443 154.5,311.5C 154.5,313.167 154.5,314.833 154.5,316.5 Z"/></g>
<g><path style="opacity:1" fill="#e8d8d6" d="M 168.5,299.5 C 166.5,299.5 164.5,299.5 162.5,299.5C 160.801,299.66 159.134,299.494 157.5,299C 152.45,293.207 153.784,290.04 161.5,289.5C 167.69,290.035 170.023,293.368 168.5,299.5 Z"/></g>
<g><path style="opacity:0.047" fill="#dcc9e6" d="M 179.5,297.5 C 178.432,298.434 177.099,298.768 175.5,298.5C 175.737,299.791 175.404,300.791 174.5,301.5C 174.5,300.167 174.5,298.833 174.5,297.5C 176.167,297.5 177.833,297.5 179.5,297.5 Z"/></g>
<g><path style="opacity:0.973" fill="#684e73" d="M 190.5,297.5 C 190.414,298.496 190.748,299.329 191.5,300C 189.242,303.073 186.908,305.907 184.5,308.5C 186.132,304.576 188.132,300.91 190.5,297.5 Z"/></g>
<g><path style="opacity:1" fill="#361748" d="M 179.5,297.5 C 177.833,297.5 176.167,297.5 174.5,297.5C 174.5,298.833 174.5,300.167 174.5,301.5C 174.5,302.167 174.167,302.5 173.5,302.5C 167.432,301.862 166.099,303.862 169.5,308.5C 172.848,311.851 175.848,315.518 178.5,319.5C 179.301,321.793 179.968,321.46 180.5,318.5C 181.321,314.873 182.654,311.54 184.5,308.5C 185.36,314.001 184.027,318.834 180.5,323C 179.004,323.507 177.837,323.007 177,321.5C 176.833,321.833 176.667,322.167 176.5,322.5C 177.714,324.069 179.381,324.902 181.5,325C 179.291,326.691 177.458,326.524 176,324.5C 175.23,317.274 171.73,311.94 165.5,308.5C 162.305,309.829 161.972,311.495 164.5,313.5C 166.586,311.977 168.252,312.31 169.5,314.5C 168.329,316.169 166.996,317.669 165.5,319C 167.625,322.676 167.291,326.176 164.5,329.5C 161.462,330.731 158.462,330.564 155.5,329C 155.297,325.159 155.297,321.326 155.5,317.5C 152.514,317.435 150.18,318.602 148.5,321C 151.717,323.614 153.051,326.78 152.5,330.5C 151.087,325.092 147.42,322.759 141.5,323.5C 141.238,324.978 141.571,326.311 142.5,327.5C 143.855,328.188 144.855,329.188 145.5,330.5C 143.063,329.783 140.73,328.783 138.5,327.5C 140.104,325.821 140.771,323.821 140.5,321.5C 143.588,321.803 145.254,320.47 145.5,317.5C 148.545,317.492 151.545,317.159 154.5,316.5C 156.28,315.01 156.946,313.01 156.5,310.5C 155.5,310.5 154.5,310.5 153.5,310.5C 153.52,308.857 152.853,307.524 151.5,306.5C 152.727,305.41 153.56,304.076 154,302.5C 156.714,301.004 159.547,300.004 162.5,299.5C 164.5,299.5 166.5,299.5 168.5,299.5C 169.289,299.217 169.956,298.717 170.5,298C 169.736,295.931 169.236,293.764 169,291.5C 168.355,290.354 167.522,289.354 166.5,288.5C 166.863,287.817 167.196,287.15 167.5,286.5C 167.5,285.833 167.5,285.167 167.5,284.5C 167.435,284.062 167.601,283.728 168,283.5C 170.516,286.982 172.516,290.649 174,294.5C 176.105,291.893 176.938,288.893 176.5,285.5C 176.5,283.5 176.5,281.5 176.5,279.5C 177.326,275.018 177.826,270.351 178,265.5C 178.5,250.837 178.667,236.17 178.5,221.5C 168.652,221.173 158.986,221.506 149.5,222.5C 147.901,222.232 146.568,222.566 145.5,223.5C 144.735,224.66 143.735,225.66 142.5,226.5C 141.673,224.838 140.507,223.505 139,222.5C 137.813,226.763 135.313,227.596 131.5,225C 133.889,224.261 135.889,223.095 137.5,221.5C 137.833,221.5 138.167,221.5 138.5,221.5C 140.195,219.656 142.195,218.323 144.5,217.5C 157.053,216.257 169.553,216.257 182,217.5C 182.667,238.167 182.667,258.833 182,279.5C 181.016,285.5 180.183,291.5 179.5,297.5 Z"/></g>
<g><path style="opacity:1" fill="#5d4468" d="M 173.5,302.5 C 171.626,304.115 170.292,306.115 169.5,308.5C 166.099,303.862 167.432,301.862 173.5,302.5 Z"/></g>
<g><path style="opacity:1" fill="#4e195b" d="M 195.5,343.5 C 191.674,338.161 188.007,332.661 184.5,327C 189.131,312.222 196.464,299.055 206.5,287.5C 207.5,286.833 208.5,286.167 209.5,285.5C 212.248,283.428 215.248,281.761 218.5,280.5C 218.833,281 219.167,281.5 219.5,282C 215.768,287.406 212.435,293.073 209.5,299C 211.953,300.792 214.62,302.292 217.5,303.5C 214.678,306.156 212.012,308.989 209.5,312C 214.358,322.738 219.691,333.238 225.5,343.5C 218.197,344.497 210.863,344.831 203.5,344.5C 203.832,332.149 203.499,319.815 202.5,307.5C 201.573,309.113 200.739,310.779 200,312.5C 198.958,323.475 198.291,334.475 198,345.5C 197.292,344.619 196.458,343.953 195.5,343.5 Z"/></g>
<g><path style="opacity:0.929" fill="#564165" d="M 361.5,308.5 C 363.245,312.2 364.245,316.2 364.5,320.5C 362.532,316.983 361.532,312.983 361.5,308.5 Z"/></g>
<g><path style="opacity:1" fill="#310c42" d="M 344.5,291.5 C 350.872,293.205 354.872,297.205 356.5,303.5C 357.5,303.5 358.5,303.5 359.5,303.5C 359.338,305.527 359.505,307.527 360,309.5C 360.278,308.584 360.778,307.918 361.5,307.5C 361.5,307.833 361.5,308.167 361.5,308.5C 361.532,312.983 362.532,316.983 364.5,320.5C 366.375,325.89 367.375,331.556 367.5,337.5C 367.171,340.228 367.837,342.562 369.5,344.5C 369.5,345.833 369.5,347.167 369.5,348.5C 369.5,349.5 369.5,350.5 369.5,351.5C 342.5,351.5 315.5,351.5 288.5,351.5C 240.33,351.832 192.33,351.499 144.5,350.5C 173.833,350.5 203.167,350.5 232.5,350.5C 277.5,350.5 322.5,350.5 367.5,350.5C 367.5,349.5 367.5,348.5 367.5,347.5C 363.434,348.513 359.601,348.18 356,346.5C 354.441,347.029 352.941,347.696 351.5,348.5C 348.597,348.306 345.763,348.306 343,348.5C 341,345.833 339,345.833 337,348.5C 331.394,347.311 325.727,347.311 320,348.5C 313.476,345.675 307.143,346.008 301,349.5C 297,349.5 293,349.5 289,349.5C 286.961,346.405 284.294,346.071 281,348.5C 276.995,348.694 272.829,348.36 268.5,347.5C 271.803,344.515 275.47,343.181 279.5,343.5C 291.322,344.495 303.322,344.828 315.5,344.5C 316.113,333.936 317.947,323.602 321,313.5C 322.833,307.511 326.333,302.845 331.5,299.5C 331.833,299.833 332.167,300.167 332.5,300.5C 326.648,314.576 323.648,329.243 323.5,344.5C 336.167,344.5 348.833,344.5 361.5,344.5C 360.139,330.94 357.639,317.607 354,304.5C 351.312,299.779 348.145,295.446 344.5,291.5 Z"/></g>
<g><path style="opacity:0.18" fill="#ae9bba" d="M 133.5,316.5 C 134.473,316.987 135.473,317.487 136.5,318C 134.391,324.049 134.058,330.216 135.5,336.5C 134.732,335.737 134.232,334.737 134,333.5C 133.98,327.771 133.814,322.104 133.5,316.5 Z"/></g>
<g><path style="opacity:1" fill="#300b43" d="M 206.5,287.5 C 196.464,299.055 189.131,312.222 184.5,327C 188.007,332.661 191.674,338.161 195.5,343.5C 193.951,343.736 192.451,343.736 191,343.5C 188.066,345.882 188.566,347.882 192.5,349.5C 197.313,348.447 202.147,347.447 207,346.5C 208.473,346.903 209.806,347.57 211,348.5C 218.414,347.098 225.581,347.765 232.5,350.5C 203.167,350.5 173.833,350.5 144.5,350.5C 144.5,348.5 143.5,347.5 141.5,347.5C 141.346,345.03 140.346,343.03 138.5,341.5C 137.11,340.101 136.11,338.434 135.5,336.5C 134.058,330.216 134.391,324.049 136.5,318C 135.473,317.487 134.473,316.987 133.5,316.5C 133.5,316.167 133.5,315.833 133.5,315.5C 136.766,315.567 138.266,313.901 138,310.5C 137.976,314.412 139.81,316.745 143.5,317.5C 144.167,317.5 144.833,317.5 145.5,317.5C 145.254,320.47 143.588,321.803 140.5,321.5C 140.771,323.821 140.104,325.821 138.5,327.5C 140.73,328.783 143.063,329.783 145.5,330.5C 147.962,333.053 150.295,333.053 152.5,330.5C 153.051,326.78 151.717,323.614 148.5,321C 150.18,318.602 152.514,317.435 155.5,317.5C 155.297,321.326 155.297,325.159 155.5,329C 158.462,330.564 161.462,330.731 164.5,329.5C 167.291,326.176 167.625,322.676 165.5,319C 166.996,317.669 168.329,316.169 169.5,314.5C 168.252,312.31 166.586,311.977 164.5,313.5C 161.972,311.495 162.305,309.829 165.5,308.5C 171.73,311.94 175.23,317.274 176,324.5C 177.458,326.524 179.291,326.691 181.5,325C 179.381,324.902 177.714,324.069 176.5,322.5C 176.667,322.167 176.833,321.833 177,321.5C 177.837,323.007 179.004,323.507 180.5,323C 184.027,318.834 185.36,314.001 184.5,308.5C 186.908,305.907 189.242,303.073 191.5,300C 190.748,299.329 190.414,298.496 190.5,297.5C 191.238,295.06 192.571,293.06 194.5,291.5C 197.876,288.806 201.543,286.473 205.5,284.5C 205.263,285.791 205.596,286.791 206.5,287.5 Z"/></g>
<g><path style="opacity:1" fill="#4d195a" d="M 170.5,321.5 C 172.074,321.937 173.241,322.937 174,324.5C 178.394,330.719 182.56,337.052 186.5,343.5C 173.5,344.833 160.5,344.833 147.5,343.5C 145.732,341.298 144.565,338.965 144,336.5C 154.852,339.77 163.519,336.437 170,326.5C 170.494,324.866 170.66,323.199 170.5,321.5 Z"/></g>
<g><path style="opacity:1" fill="#e1cfd8" d="M 161.5,315.5 C 162.588,317.516 163.588,319.683 164.5,322C 163.402,324.767 161.568,326.933 159,328.5C 157.637,327.107 156.804,325.441 156.5,323.5C 158.982,321.35 160.648,318.683 161.5,315.5 Z"/></g>
<g><path style="opacity:1" fill="#e8d9d9" d="M 152.5,330.5 C 150.295,333.053 147.962,333.053 145.5,330.5C 144.855,329.188 143.855,328.188 142.5,327.5C 141.571,326.311 141.238,324.978 141.5,323.5C 147.42,322.759 151.087,325.092 152.5,330.5 Z"/></g>
<g><path style="opacity:0.09" fill="#c8b4d1" d="M 180.5,318.5 C 179.968,321.46 179.301,321.793 178.5,319.5C 179.167,319.167 179.833,318.833 180.5,318.5 Z"/></g>
<g><path style="opacity:1" fill="#300a42" d="M 238.5,325.5 C 239.831,322.874 241.165,320.207 242.5,317.5C 243.75,317.423 244.583,316.756 245,315.5C 245.799,310.913 245.632,306.413 244.5,302C 244.99,293.806 248.99,290.806 256.5,293C 257.252,293.671 257.586,294.504 257.5,295.5C 251.087,293.376 247.753,295.71 247.5,302.5C 248.169,310.17 251.502,311.836 257.5,307.5C 258.735,307.279 259.735,306.612 260.5,305.5C 260.833,306.167 261.167,306.833 261.5,307.5C 260.481,309.511 259.481,311.511 258.5,313.5C 257.883,313.389 257.383,313.056 257,312.5C 256.326,318.92 256.826,325.253 258.5,331.5C 259.842,329.995 261.508,329.328 263.5,329.5C 263.374,331.2 262.707,332.7 261.5,334C 261.836,335.03 262.503,335.53 263.5,335.5C 261.417,338.651 259.084,341.651 256.5,344.5C 260.459,345.66 264.459,345.827 268.5,345C 277.8,337.367 286.467,329.034 294.5,320C 291.786,316.036 290.453,311.87 290.5,307.5C 295.437,305.632 300.437,303.965 305.5,302.5C 306.313,298.838 306.979,295.172 307.5,291.5C 308.306,292.997 308.972,294.664 309.5,296.5C 308.515,298.098 308.349,299.765 309,301.5C 310.446,296.577 311.946,291.91 313.5,287.5C 313.5,294.5 313.5,301.5 313.5,308.5C 308.64,309.382 303.974,310.882 299.5,313C 301.433,315.676 302.6,318.509 303,321.5C 295.572,329.433 287.739,336.766 279.5,343.5C 275.47,343.181 271.803,344.515 268.5,347.5C 272.829,348.36 276.995,348.694 281,348.5C 284.294,346.071 286.961,346.405 289,349.5C 293,349.5 297,349.5 301,349.5C 307.143,346.008 313.476,345.675 320,348.5C 325.727,347.311 331.394,347.311 337,348.5C 339,345.833 341,345.833 343,348.5C 345.763,348.306 348.597,348.306 351.5,348.5C 352.941,347.696 354.441,347.029 356,346.5C 359.601,348.18 363.434,348.513 367.5,347.5C 367.5,348.5 367.5,349.5 367.5,350.5C 322.5,350.5 277.5,350.5 232.5,350.5C 225.581,347.765 218.414,347.098 211,348.5C 209.806,347.57 208.473,346.903 207,346.5C 202.147,347.447 197.313,348.447 192.5,349.5C 188.566,347.882 188.066,345.882 191,343.5C 192.451,343.736 193.951,343.736 195.5,343.5C 196.458,343.953 197.292,344.619 198,345.5C 198.291,334.475 198.958,323.475 200,312.5C 200.739,310.779 201.573,309.113 202.5,307.5C 203.499,319.815 203.832,332.149 203.5,344.5C 210.863,344.831 218.197,344.497 225.5,343.5C 219.691,333.238 214.358,322.738 209.5,312C 212.012,308.989 214.678,306.156 217.5,303.5C 214.62,302.292 211.953,300.792 209.5,299C 212.435,293.073 215.768,287.406 219.5,282C 219.167,281.5 218.833,281 218.5,280.5C 215.248,281.761 212.248,283.428 209.5,285.5C 208.192,284.768 206.858,283.934 205.5,283C 208.294,281.465 210.294,279.298 211.5,276.5C 213.92,276.708 216.253,276.374 218.5,275.5C 220.738,278.433 221.738,278.099 221.5,274.5C 226.26,275.388 230.427,277.388 234,280.5C 234.414,280.043 234.914,279.709 235.5,279.5C 238.83,280.094 242.164,280.76 245.5,281.5C 241.761,282.635 238.094,283.969 234.5,285.5C 235.457,291.439 235.79,297.439 235.5,303.5C 236.5,303.5 237.5,303.5 238.5,303.5C 238.803,306.588 237.47,308.254 234.5,308.5C 235.032,314.628 236.199,320.628 238,326.5C 238.399,326.272 238.565,325.938 238.5,325.5 Z"/></g>
<g><path style="opacity:1" fill="#4e185a" d="M 225.5,282.5 C 227.5,282.833 229.5,283.167 231.5,283.5C 231.333,296.171 231.5,308.838 232,321.5C 233.516,329.565 235.349,337.565 237.5,345.5C 235.396,345.799 233.396,345.466 231.5,344.5C 226.201,333.959 221.201,323.292 216.5,312.5C 219.826,310.006 222.66,307.006 225,303.5C 225.781,302.056 225.614,300.723 224.5,299.5C 222.226,297.909 219.892,296.409 217.5,295C 220.552,291.059 223.218,286.893 225.5,282.5 Z"/></g>
<g><path style="opacity:1" fill="#ecdddc" d="M 258.5,313.5 C 261.192,311.797 263.192,309.464 264.5,306.5C 266.789,308.902 268.455,311.735 269.5,315C 266.538,319.75 263.205,324.25 259.5,328.5C 258.506,323.544 258.173,318.544 258.5,313.5 Z"/></g>
<g><path style="opacity:1" fill="#e7d9dd" d="M 242.5,317.5 C 241.165,320.207 239.831,322.874 238.5,325.5C 238.057,322.188 237.724,318.855 237.5,315.5C 236.778,311.258 238.111,307.925 241.5,305.5C 242.349,307.894 243.349,310.227 244.5,312.5C 243.05,313.85 242.383,315.516 242.5,317.5 Z"/></g>
<g><path style="opacity:1" fill="#5e256a" d="M 257.5,295.5 C 258.833,299.5 258.833,303.5 257.5,307.5C 251.502,311.836 248.169,310.17 247.5,302.5C 247.753,295.71 251.087,293.376 257.5,295.5 Z"/></g>
<g><path style="opacity:1" fill="#ebddda" d="M 285.5,293.5 C 282.759,295.975 280.759,298.975 279.5,302.5C 277.523,304.814 275.523,307.147 273.5,309.5C 270.248,304.666 267.248,299.666 264.5,294.5C 271.949,294.732 279.115,293.066 286,289.5C 286.195,290.819 286.028,292.153 285.5,293.5 Z"/></g>
<g><path style="opacity:0.176" fill="#a490aa" d="M 367.5,337.5 C 368.612,339.599 369.279,341.933 369.5,344.5C 367.837,342.562 367.171,340.228 367.5,337.5 Z"/></g>
<g><path style="opacity:1" fill="#5e2669" d="M 248.5,316.5 C 249.833,316.5 251.167,316.5 252.5,316.5C 252.96,323.538 253.46,330.538 254,337.5C 252.777,341.345 250.277,343.678 246.5,344.5C 245.228,344.43 244.062,344.097 243,343.5C 242.421,341.351 241.921,339.185 241.5,337C 243.343,329.97 245.676,323.137 248.5,316.5 Z"/></g>
<g><path style="opacity:0.067" fill="#9d8e9f" d="M 138.5,341.5 C 140.346,343.03 141.346,345.03 141.5,347.5C 139.654,345.97 138.654,343.97 138.5,341.5 Z"/></g>
<g><path style="opacity:0.247" fill="#553c56" d="M 141.5,347.5 C 143.5,347.5 144.5,348.5 144.5,350.5C 192.33,351.499 240.33,351.832 288.5,351.5C 288.5,351.833 288.5,352.167 288.5,352.5C 240.166,352.667 191.832,352.5 143.5,352C 142.733,350.53 142.067,349.03 141.5,347.5 Z"/></g>
<g><path style="opacity:0.231" fill="#645267" d="M 369.5,348.5 C 370.434,349.568 370.768,350.901 370.5,352.5C 343.167,352.5 315.833,352.5 288.5,352.5C 288.5,352.167 288.5,351.833 288.5,351.5C 315.5,351.5 342.5,351.5 369.5,351.5C 369.5,350.5 369.5,349.5 369.5,348.5 Z"/></g>
<g><path style="opacity:1" fill="#644d6f" d="M 171.5,360.5 C 178.819,358.681 182.319,361.347 182,368.5C 178.712,371.522 174.878,372.189 170.5,370.5C 167.696,366.852 168.03,363.518 171.5,360.5 Z"/></g>
<g><path style="opacity:1" fill="#2d0b44" d="M 172.5,362.5 C 179.461,361.795 181.461,364.462 178.5,370.5C 174.786,370.274 171.786,368.774 169.5,366C 170.544,364.826 171.544,363.659 172.5,362.5 Z"/></g>
<g><path style="opacity:1" fill="#553b63" d="M 318.5,370.5 C 316.974,369.508 316.307,368.008 316.5,366C 316.354,363.966 317.02,362.299 318.5,361C 328.074,358.895 331.074,362.229 327.5,371C 324.304,371.805 321.304,371.638 318.5,370.5 Z"/></g>
<g><path style="opacity:1" fill="#2f0b44" d="M 318.5,370.5 C 317.789,368.421 317.789,366.088 318.5,363.5C 320.768,362.456 323.101,362.289 325.5,363C 326.765,364.337 327.265,365.837 327,367.5C 324.458,369.182 321.625,370.182 318.5,370.5 Z"/></g>
<g><path style="opacity:1" fill="#493356" d="M 386.5,365.5 C 387.822,365.33 388.989,365.663 390,366.5C 390.497,368.81 390.663,371.143 390.5,373.5C 393.448,373.223 396.281,373.556 399,374.5C 399.167,376 399.333,377.5 399.5,379C 399.431,380.986 398.765,382.486 397.5,383.5C 397.167,383.5 396.833,383.5 396.5,383.5C 398.202,381.2 398.868,378.533 398.5,375.5C 395.428,375.817 392.428,375.484 389.5,374.5C 389.025,371.247 388.025,368.247 386.5,365.5 Z"/></g>
<g><path style="opacity:1" fill="#503562" d="M 146.5,374.5 C 149.976,373.357 153.642,373.19 157.5,374C 160.445,374.139 162.779,375.306 164.5,377.5C 161.894,376.864 159.394,376.864 157,377.5C 156.751,376.376 156.251,375.376 155.5,374.5C 152.505,375.724 149.505,375.724 146.5,374.5 Z"/></g>
<g><path style="opacity:0.016" fill="#bfb9c1" d="M 130.5,375.5 C 132.027,375.427 133.027,376.094 133.5,377.5C 131.973,377.573 130.973,376.906 130.5,375.5 Z"/></g>
<g><path style="opacity:0.329" fill="#c0b4c8" d="M 217.5,375.5 C 218.906,375.973 219.573,376.973 219.5,378.5C 218.094,378.027 217.427,377.027 217.5,375.5 Z"/></g>
<g><path style="opacity:1" fill="#4f355d" d="M 350.5,373.5 C 347.558,376.61 343.892,378.61 339.5,379.5C 336.949,381.957 335.449,384.957 335,388.5C 334.617,387.944 334.117,387.611 333.5,387.5C 335.787,378.174 341.454,373.507 350.5,373.5 Z"/></g>
<g><path style="opacity:1" fill="#3a194f" d="M 130.5,375.5 C 130.973,376.906 131.973,377.573 133.5,377.5C 134.598,378.601 134.765,379.934 134,381.5C 130.692,386.426 126.859,386.76 122.5,382.5C 120.712,381.378 118.712,381.211 116.5,382C 116.091,384.947 115.091,387.614 113.5,390C 114.604,391.131 114.271,391.965 112.5,392.5C 108.832,389.803 107.665,386.136 109,381.5C 110.718,380.15 112.552,378.983 114.5,378C 113.829,377.014 113.829,375.847 114.5,374.5C 116.304,373.838 118.304,373.505 120.5,373.5C 124.117,373.398 127.45,374.065 130.5,375.5 Z"/></g>
<g><path style="opacity:1" fill="#2f0a46" d="M 247.5,374.5 C 247.833,374.5 248.167,374.5 248.5,374.5C 252.172,375.021 255.838,375.687 259.5,376.5C 257.724,377.315 257.057,378.482 257.5,380C 253.831,381.904 250.165,382.904 246.5,383C 246.034,384.299 246.034,385.799 246.5,387.5C 244.833,387.5 243.167,387.5 241.5,387.5C 240.782,385.863 240.616,384.197 241,382.5C 243.096,379.018 245.263,376.351 247.5,374.5 Z"/></g>
<g><path style="opacity:1" fill="#5c4564" d="M 283.5,374.5 C 282.732,377.562 280.732,379.228 277.5,379.5C 278.288,376.379 280.288,374.712 283.5,374.5 Z"/></g>
<g><path style="opacity:1" fill="#33104a" d="M 295.5,374.5 C 296.872,376.712 297.872,378.712 298.5,380.5C 301.194,376.515 305.027,374.515 310,374.5C 310.5,384.828 310.666,395.161 310.5,405.5C 308.924,398.4 308.09,391.067 308,383.5C 307.667,385.5 307.333,387.5 307,389.5C 306.667,389.167 306.333,388.833 306,388.5C 305.825,384.789 305.325,381.122 304.5,377.5C 303.248,379.001 302.248,380.668 301.5,382.5C 299.257,383.474 296.924,383.808 294.5,383.5C 293.833,383.5 293.167,383.5 292.5,383.5C 290.5,383.5 288.5,383.5 286.5,383.5C 286.5,384.833 286.5,386.167 286.5,387.5C 284.631,389.635 283.964,392.302 284.5,395.5C 283.178,395.33 282.011,395.663 281,396.5C 280.871,402.989 278.704,403.989 274.5,399.5C 273.35,394.684 273.184,389.684 274,384.5C 274.902,382.569 276.069,380.903 277.5,379.5C 280.732,379.228 282.732,377.562 283.5,374.5C 287.468,372.036 291.468,372.036 295.5,374.5 Z M 292.5,383.5 C 293.167,383.5 293.833,383.5 294.5,383.5C 298.763,384.632 300.43,387.466 299.5,392C 300.27,395.827 298.937,398.494 295.5,400C 289.312,401.162 285.979,398.495 285.5,392C 285.773,390.467 286.106,388.967 286.5,387.5C 288.272,385.71 290.272,384.377 292.5,383.5 Z"/></g>
<g><path style="opacity:1" fill="#3c1f4c" d="M 318.5,373.5 C 321.833,373.5 325.167,373.5 328.5,373.5C 328.832,386.184 328.499,398.851 327.5,411.5C 323.738,413.09 320.238,412.757 317,410.5C 316.833,404.5 316.667,398.5 316.5,392.5C 316.542,385.927 317.208,379.594 318.5,373.5 Z"/></g>
<g><path style="opacity:1" fill="#310e47" d="M 146.5,374.5 C 149.505,375.724 152.505,375.724 155.5,374.5C 156.251,375.376 156.751,376.376 157,377.5C 159.394,376.864 161.894,376.864 164.5,377.5C 164.189,381.302 162.189,383.635 158.5,384.5C 156.235,380.584 152.902,379.584 148.5,381.5C 144.586,383.992 144.586,386.492 148.5,389C 146.866,389.494 145.199,389.66 143.5,389.5C 143.349,392.718 142.516,393.051 141,390.5C 139.572,386.771 139.072,383.105 139.5,379.5C 141.023,376.636 143.357,374.969 146.5,374.5 Z"/></g>
<g><path style="opacity:0.941" fill="#796580" d="M 363.5,376.5 C 365.404,376.738 366.738,377.738 367.5,379.5C 366.127,379.657 364.793,379.49 363.5,379C 364.598,378.23 364.598,377.397 363.5,376.5 Z"/></g>
<g><path style="opacity:0.216" fill="#a090a4" d="M 109.5,377.5 C 109.573,379.027 108.906,380.027 107.5,380.5C 107.427,378.973 108.094,377.973 109.5,377.5 Z"/></g>
<g><path style="opacity:1" fill="#391e4b" d="M 383.5,365.5 C 383.179,367.048 382.179,367.715 380.5,367.5C 380.663,369.857 380.497,372.19 380,374.5C 378.244,376.616 376.744,378.949 375.5,381.5C 375.863,382.183 376.196,382.85 376.5,383.5C 375.5,383.5 374.5,383.5 373.5,383.5C 372.521,380.375 372.187,377.042 372.5,373.5C 374.5,373.5 376.5,373.5 378.5,373.5C 378.337,371.143 378.503,368.81 379,366.5C 380.356,365.62 381.856,365.286 383.5,365.5 Z"/></g>
<g><path style="opacity:1" fill="#573b69" d="M 247.5,374.5 C 245.263,376.351 243.096,379.018 241,382.5C 240.616,384.197 240.782,385.863 241.5,387.5C 237.656,380.903 239.656,376.57 247.5,374.5 Z"/></g>
<g><path style="opacity:1" fill="#341248" d="M 363.5,376.5 C 364.598,377.397 364.598,378.23 363.5,379C 364.793,379.49 366.127,379.657 367.5,379.5C 371.513,384.895 372.846,390.895 371.5,397.5C 369.931,400.228 367.598,402.062 364.5,403C 365.973,403.71 366.64,404.876 366.5,406.5C 365.178,406.33 364.011,406.663 363,407.5C 362.626,406.584 362.126,405.75 361.5,405C 360.42,402.315 360.42,399.315 361.5,396C 361.046,393.97 360.38,392.137 359.5,390.5C 359.385,388.053 358.385,386.053 356.5,384.5C 353.218,384.019 350.051,383.019 347,381.5C 344.338,386.656 342.172,391.989 340.5,397.5C 341.932,397.585 343.265,398.585 344.5,400.5C 342.204,402.723 339.538,403.556 336.5,403C 335.947,401.122 334.947,399.622 333.5,398.5C 332.167,394.833 332.167,391.167 333.5,387.5C 334.117,387.611 334.617,387.944 335,388.5C 335.449,384.957 336.949,381.957 339.5,379.5C 343.892,378.61 347.558,376.61 350.5,373.5C 351.117,373.389 351.617,373.056 352,372.5C 356.182,373.046 360.015,374.38 363.5,376.5 Z M 356.5,384.5 C 358.385,386.053 359.385,388.053 359.5,390.5C 361.228,397.253 358.728,401.253 352,402.5C 347.218,401.713 345.052,398.88 345.5,394C 344.995,386.005 348.661,382.839 356.5,384.5 Z"/></g>
<g><path style="opacity:0.698" fill="#604c6c" d="M 164.5,377.5 C 165.913,381.343 164.58,384.01 160.5,385.5C 159.584,385.457 158.917,385.124 158.5,384.5C 162.189,383.635 164.189,381.302 164.5,377.5 Z"/></g>
<g><path style="opacity:1" fill="#38174b" d="M 217.5,375.5 C 217.427,377.027 218.094,378.027 219.5,378.5C 220.268,379.263 220.768,380.263 221,381.5C 221.832,391.517 221.666,401.517 220.5,411.5C 217.562,412.575 214.562,412.741 211.5,412C 210.944,411.617 210.611,411.117 210.5,410.5C 210.666,401.827 210.5,393.16 210,384.5C 208.431,383.878 206.764,383.544 205,383.5C 203.014,383.569 201.514,384.235 200.5,385.5C 200.217,386.289 199.717,386.956 199,387.5C 198.667,395.167 198.333,402.833 198,410.5C 197.5,411 197,411.5 196.5,412C 193.518,412.498 190.518,412.665 187.5,412.5C 187.168,399.483 187.501,386.483 188.5,373.5C 192.811,371.544 196.145,372.544 198.5,376.5C 204.77,371.759 211.104,371.425 217.5,375.5 Z"/></g>
<g><path style="opacity:0.69" fill="#8d7b9c" d="M 210.5,410.5 C 209.671,402.677 209.171,394.677 209,386.5C 206.458,384.162 203.625,383.828 200.5,385.5C 201.514,384.235 203.014,383.569 205,383.5C 206.764,383.544 208.431,383.878 210,384.5C 210.5,393.16 210.666,401.827 210.5,410.5 Z"/></g>
<g><path style="opacity:1" fill="#39194c" d="M 310.5,405.5 C 310.5,407.833 310.5,410.167 310.5,412.5C 306.914,422.344 299.748,427.01 289,426.5C 285.448,426.359 281.948,425.859 278.5,425C 274.641,421.592 274.641,418.092 278.5,414.5C 284.944,417.502 291.111,417.168 297,413.5C 301.008,407.642 300.175,406.476 294.5,410C 284.418,412.712 277.752,409.212 274.5,399.5C 278.704,403.989 280.871,402.989 281,396.5C 282.011,395.663 283.178,395.33 284.5,395.5C 283.964,392.302 284.631,389.635 286.5,387.5C 286.106,388.967 285.773,390.467 285.5,392C 285.979,398.495 289.312,401.162 295.5,400C 298.937,398.494 300.27,395.827 299.5,392C 300.43,387.466 298.763,384.632 294.5,383.5C 296.924,383.808 299.257,383.474 301.5,382.5C 302.248,380.668 303.248,379.001 304.5,377.5C 305.325,381.122 305.825,384.789 306,388.5C 306.333,388.833 306.667,389.167 307,389.5C 307.333,387.5 307.667,385.5 308,383.5C 308.09,391.067 308.924,398.4 310.5,405.5 Z"/></g>
<g><path style="opacity:0.367" fill="#60416f" d="M 310.5,412.5 C 310.5,410.167 310.5,407.833 310.5,405.5C 310.666,395.161 310.5,384.828 310,374.5C 305.027,374.515 301.194,376.515 298.5,380.5C 297.872,378.712 296.872,376.712 295.5,374.5C 297.044,374.703 298.378,375.37 299.5,376.5C 300.311,374.609 301.644,373.276 303.5,372.5C 306.084,373.393 308.751,373.726 311.5,373.5C 311.829,386.677 311.495,399.677 310.5,412.5 Z"/></g>
<g><path style="opacity:0.902" fill="#8f7a97" d="M 292.5,383.5 C 290.272,384.377 288.272,385.71 286.5,387.5C 286.5,386.167 286.5,384.833 286.5,383.5C 288.5,383.5 290.5,383.5 292.5,383.5 Z"/></g>
<g><path style="opacity:0.39" fill="#a490ad" d="M 373.5,383.5 C 374.5,383.5 375.5,383.5 376.5,383.5C 377.5,383.5 378.5,383.5 379.5,383.5C 379.5,390.5 379.5,397.5 379.5,404.5C 378.509,398.021 378.176,391.354 378.5,384.5C 376.585,384.784 374.919,384.451 373.5,383.5 Z"/></g>
<g><path style="opacity:0.698" fill="#6b5572" d="M 419.5,383.5 C 420.833,383.5 422.167,383.5 423.5,383.5C 423.5,385.5 423.5,387.5 423.5,389.5C 420.794,389.575 418.127,389.908 415.5,390.5C 417.438,388.837 419.772,388.171 422.5,388.5C 422.69,386.041 421.69,384.374 419.5,383.5 Z"/></g>
<g><path style="opacity:1" fill="#300e45" d="M 261.5,410.5 C 258.173,407.68 255.506,408.346 253.5,412.5C 249.958,412.813 246.625,412.479 243.5,411.5C 243.027,410.094 242.027,409.427 240.5,409.5C 239.21,408.942 238.377,407.942 238,406.5C 237.195,403.304 237.362,400.304 238.5,397.5C 241.95,398.244 243.616,396.91 243.5,393.5C 247.74,392.264 251.74,392.931 255.5,395.5C 254.757,396.182 254.091,396.849 253.5,397.5C 249.961,398.324 248.628,400.324 249.5,403.5C 254.153,406.844 257.653,405.844 260,400.5C 261.813,394.643 259.646,392.143 253.5,393C 255,392.167 256.167,391 257,389.5C 257.414,389.957 257.914,390.291 258.5,390.5C 259.047,387.298 260.047,384.298 261.5,381.5C 261.023,380.522 260.357,379.689 259.5,379C 264.815,376.648 266.815,378.314 265.5,384C 267.407,392.674 268.074,401.507 267.5,410.5C 265.5,410.5 263.5,410.5 261.5,410.5 Z M 249.5,403.5 C 248.628,400.324 249.961,398.324 253.5,397.5C 255.39,397.703 256.89,397.037 258,395.5C 258.848,401.739 256.014,404.406 249.5,403.5 Z"/></g>
<g><path style="opacity:1" fill="#331247" d="M 424.5,374.5 C 425.502,376.011 426.169,377.678 426.5,379.5C 427.833,379.5 429.167,379.5 430.5,379.5C 430.643,381.262 430.309,382.929 429.5,384.5C 430.766,388.481 431.432,392.648 431.5,397C 431.333,400.833 431.167,404.667 431,408.5C 429.022,409.816 427.522,409.316 426.5,407C 422.191,405.802 418.524,406.802 415.5,410C 412.303,410.987 409.47,410.487 407,408.5C 406.329,409.252 405.496,409.586 404.5,409.5C 403.387,405.493 403.387,401.493 404.5,397.5C 406.449,395.703 408.116,393.703 409.5,391.5C 411.265,390.539 413.265,390.205 415.5,390.5C 418.127,389.908 420.794,389.575 423.5,389.5C 423.5,387.5 423.5,385.5 423.5,383.5C 422.167,383.5 420.833,383.5 419.5,383.5C 418.5,383.5 417.5,383.5 416.5,383.5C 412.277,380.688 410.61,382.021 411.5,387.5C 403.408,389.583 400.908,386.916 404,379.5C 405.961,376.865 408.461,375.031 411.5,374C 416.02,373.186 420.354,373.353 424.5,374.5 Z M 421.5,395.5 C 423.286,400.263 421.453,402.93 416,403.5C 411.572,402.407 411.405,400.574 415.5,398C 417.852,397.76 419.852,396.927 421.5,395.5 Z"/></g>
<g><path style="opacity:1" fill="#664d72" d="M 416.5,383.5 C 414.858,384.803 413.191,386.136 411.5,387.5C 410.61,382.021 412.277,380.688 416.5,383.5 Z"/></g>
<g><path style="opacity:1" fill="#4a2f59" d="M 139.5,379.5 C 139.072,383.105 139.572,386.771 141,390.5C 142.516,393.051 143.349,392.718 143.5,389.5C 145.199,389.66 146.866,389.494 148.5,389C 144.586,386.492 144.586,383.992 148.5,381.5C 152.902,379.584 156.235,380.584 158.5,384.5C 155.988,383.072 153.322,382.572 150.5,383C 149.253,384.494 149.253,385.994 150.5,387.5C 153.93,388.381 157.263,389.548 160.5,391C 161.942,391.377 162.942,392.21 163.5,393.5C 159.871,392.926 156.037,391.926 152,390.5C 149.018,390.712 146.518,391.879 144.5,394C 148.995,394.584 152.995,396.251 156.5,399C 156.116,399.951 155.783,400.784 155.5,401.5C 151.611,398.596 147.278,396.429 142.5,395C 137.569,390.465 136.569,385.298 139.5,379.5 Z"/></g>
<g><path style="opacity:1" fill="#320f48" d="M 96.5,377.5 C 97.2159,380.598 98.7159,383.264 101,385.5C 101.738,387.953 102.238,390.453 102.5,393C 101.557,397.692 100.223,402.192 98.5,406.5C 97.8826,406.389 97.3826,406.056 97,405.5C 91.3021,410.742 84.4688,412.742 76.5,411.5C 70.2025,409.934 66.3691,405.934 65,399.5C 62.8701,380.297 71.3701,371.797 90.5,374C 93.0254,374.424 95.0254,375.59 96.5,377.5 Z M 77.5,398.5 C 76.3733,395.143 76.3733,391.809 77.5,388.5C 81.1948,383.619 85.3615,383.286 90,387.5C 92.5133,393.279 91.3467,398.112 86.5,402C 82.5532,403.02 79.5532,401.853 77.5,398.5 Z"/></g>
<g><path style="opacity:0.82" fill="#5b406b" d="M 77.5,398.5 C 79.5532,401.853 82.5532,403.02 86.5,402C 91.3467,398.112 92.5133,393.279 90,387.5C 85.3615,383.286 81.1948,383.619 77.5,388.5C 77.3573,386.738 77.6906,385.071 78.5,383.5C 82.041,382.8 85.541,382.133 89,381.5C 90.1667,383.333 91.3333,385.167 92.5,387C 92.2371,390.058 92.0705,393.225 92,396.5C 91.9071,399.007 91.0738,401.174 89.5,403C 84.816,404.102 80.4826,403.436 76.5,401C 77.2524,400.329 77.5858,399.496 77.5,398.5 Z"/></g>
<g><path style="opacity:1" fill="#472b57" d="M 114.5,374.5 C 113.829,375.847 113.829,377.014 114.5,378C 112.552,378.983 110.718,380.15 109,381.5C 107.665,386.136 108.832,389.803 112.5,392.5C 114.271,391.965 114.604,391.131 113.5,390C 115.091,387.614 116.091,384.947 116.5,382C 118.712,381.211 120.712,381.378 122.5,382.5C 118.828,382.183 117.162,383.849 117.5,387.5C 121.902,387.926 125.902,389.26 129.5,391.5C 125.747,390.406 122.08,389.739 118.5,389.5C 117.289,390.274 117.289,391.107 118.5,392C 117.672,392.915 116.672,393.581 115.5,394C 117.093,394.949 118.426,396.115 119.5,397.5C 109.179,396.191 105.179,390.525 107.5,380.5C 108.906,380.027 109.573,379.027 109.5,377.5C 110.659,375.75 112.326,374.75 114.5,374.5 Z"/></g>
<g><path style="opacity:0.582" fill="#796a7c" d="M 396.5,383.5 C 396.833,383.5 397.167,383.5 397.5,383.5C 395.393,384.468 393.059,384.802 390.5,384.5C 390.254,390.559 390.587,396.559 391.5,402.5C 390.005,402.585 389.005,401.919 388.5,400.5C 389.454,394.896 389.788,389.229 389.5,383.5C 391.833,383.5 394.167,383.5 396.5,383.5 Z"/></g>
<g><path style="opacity:1" fill="#3e1f50" d="M 170.5,373.5 C 174.106,373.211 177.606,373.544 181,374.5C 181.821,387.076 181.655,399.576 180.5,412C 176.683,413.023 173.183,412.523 170,410.5C 169.188,398.091 169.355,385.758 170.5,373.5 Z"/></g>
<g><path style="opacity:1" fill="#4a3058" d="M 267.5,411.5 C 265.265,411.795 263.265,411.461 261.5,410.5C 263.5,410.5 265.5,410.5 267.5,410.5C 268.074,401.507 267.407,392.674 265.5,384C 266.815,378.314 264.815,376.648 259.5,379C 260.357,379.689 261.023,380.522 261.5,381.5C 260.047,384.298 259.047,387.298 258.5,390.5C 257.914,390.291 257.414,389.957 257,389.5C 256.167,391 255,392.167 253.5,393C 259.646,392.143 261.813,394.643 260,400.5C 257.653,405.844 254.153,406.844 249.5,403.5C 256.014,404.406 258.848,401.739 258,395.5C 256.89,397.037 255.39,397.703 253.5,397.5C 254.091,396.849 254.757,396.182 255.5,395.5C 251.74,392.931 247.74,392.264 243.5,393.5C 243.616,396.91 241.95,398.244 238.5,397.5C 239.658,394.178 241.992,392.012 245.5,391C 249.87,390.263 254.204,389.43 258.5,388.5C 258.763,385.266 257.263,383.932 254,384.5C 251.195,384.821 248.695,385.821 246.5,387.5C 246.034,385.799 246.034,384.299 246.5,383C 250.165,382.904 253.831,381.904 257.5,380C 257.057,378.482 257.724,377.315 259.5,376.5C 255.838,375.687 252.172,375.021 248.5,374.5C 249.531,373.751 250.698,373.085 252,372.5C 267.451,373.574 273.617,381.908 270.5,397.5C 270.333,401.833 270.167,406.167 270,410.5C 269.329,411.252 268.496,411.586 267.5,411.5 Z"/></g>
<g><path style="opacity:1" fill="#2f0d47" d="M 129.5,391.5 C 131.5,392.167 132.833,393.5 133.5,395.5C 134.127,400.071 133.127,404.071 130.5,407.5C 128.402,408.914 127.402,408.248 127.5,405.5C 126.325,405.719 125.325,405.386 124.5,404.5C 125.85,403.05 127.516,402.383 129.5,402.5C 129.5,401.5 129.5,400.5 129.5,399.5C 126.167,398.833 122.833,398.167 119.5,397.5C 118.426,396.115 117.093,394.949 115.5,394C 116.672,393.581 117.672,392.915 118.5,392C 117.289,391.107 117.289,390.274 118.5,389.5C 122.08,389.739 125.747,390.406 129.5,391.5 Z"/></g>
<g><path style="opacity:0.212" fill="#b498b7" d="M 163.5,393.5 C 164.906,393.973 165.573,394.973 165.5,396.5C 164.094,396.027 163.427,395.027 163.5,393.5 Z"/></g>
<g><path style="opacity:1" fill="#4c3656" d="M 409.5,391.5 C 408.116,393.703 406.449,395.703 404.5,397.5C 403.387,401.493 403.387,405.493 404.5,409.5C 403.034,408.653 402.2,407.32 402,405.5C 400.079,398.337 402.579,393.671 409.5,391.5 Z"/></g>
<g><path style="opacity:0.984" fill="#5b4369" d="M 96.5,377.5 C 103.328,384.155 105.161,392.155 102,401.5C 101.098,403.431 99.9312,405.097 98.5,406.5C 100.223,402.192 101.557,397.692 102.5,393C 102.238,390.453 101.738,387.953 101,385.5C 98.7159,383.264 97.2159,380.598 96.5,377.5 Z"/></g>
<g><path style="opacity:0.945" fill="#5a446a" d="M 154.5,403.5 C 152.444,404.216 150.277,404.883 148,405.5C 142.021,400.433 139.187,401.766 139.5,409.5C 135.885,407.369 135.552,404.702 138.5,401.5C 139.5,401.167 140.5,400.833 141.5,400.5C 145.549,402.512 149.883,403.512 154.5,403.5 Z"/></g>
<g><path style="opacity:1" fill="#4d315c" d="M 356.5,384.5 C 348.661,382.839 344.995,386.005 345.5,394C 345.052,398.88 347.218,401.713 352,402.5C 358.728,401.253 361.228,397.253 359.5,390.5C 360.38,392.137 361.046,393.97 361.5,396C 360.42,399.315 360.42,402.315 361.5,405C 362.126,405.75 362.626,406.584 363,407.5C 364.011,406.663 365.178,406.33 366.5,406.5C 366.64,404.876 365.973,403.71 364.5,403C 367.598,402.062 369.931,400.228 371.5,397.5C 370.742,404.926 366.742,409.593 359.5,411.5C 354.684,412.65 349.684,412.816 344.5,412C 338.408,409.414 334.741,404.914 333.5,398.5C 334.947,399.622 335.947,401.122 336.5,403C 339.538,403.556 342.204,402.723 344.5,400.5C 343.265,398.585 341.932,397.585 340.5,397.5C 342.172,391.989 344.338,386.656 347,381.5C 350.051,383.019 353.218,384.019 356.5,384.5 Z"/></g>
<g><path style="opacity:1" fill="#35144a" d="M 163.5,393.5 C 163.427,395.027 164.094,396.027 165.5,396.5C 166.756,398.941 166.756,401.274 165.5,403.5C 162.687,405.824 160.354,408.49 158.5,411.5C 153.684,412.65 148.684,412.816 143.5,412C 141.934,411.392 140.6,410.558 139.5,409.5C 139.187,401.766 142.021,400.433 148,405.5C 150.277,404.883 152.444,404.216 154.5,403.5C 154.833,402.833 155.167,402.167 155.5,401.5C 155.783,400.784 156.116,399.951 156.5,399C 152.995,396.251 148.995,394.584 144.5,394C 146.518,391.879 149.018,390.712 152,390.5C 156.037,391.926 159.871,392.926 163.5,393.5 Z"/></g>
<g><path style="opacity:0.573" fill="#705a7c" d="M 165.5,403.5 C 164.966,407.703 162.633,410.369 158.5,411.5C 160.354,408.49 162.687,405.824 165.5,403.5 Z"/></g>
<g><path style="opacity:0.698" fill="#776380" d="M 133.5,395.5 C 134.643,398.976 134.81,402.642 134,406.5C 132.961,407.71 131.794,408.71 130.5,409.5C 130.5,408.833 130.5,408.167 130.5,407.5C 133.127,404.071 134.127,400.071 133.5,395.5 Z"/></g>
<g><path style="opacity:1" fill="#310e48" d="M 383.5,365.5 C 384.5,365.5 385.5,365.5 386.5,365.5C 388.025,368.247 389.025,371.247 389.5,374.5C 392.428,375.484 395.428,375.817 398.5,375.5C 398.868,378.533 398.202,381.2 396.5,383.5C 394.167,383.5 391.833,383.5 389.5,383.5C 389.788,389.229 389.454,394.896 388.5,400.5C 389.005,401.919 390.005,402.585 391.5,402.5C 394.388,401.99 396.721,402.656 398.5,404.5C 398.771,406.821 398.104,408.821 396.5,410.5C 392.893,411.489 389.226,411.823 385.5,411.5C 381.871,410.583 379.871,408.25 379.5,404.5C 379.5,397.5 379.5,390.5 379.5,383.5C 378.5,383.5 377.5,383.5 376.5,383.5C 376.196,382.85 375.863,382.183 375.5,381.5C 376.744,378.949 378.244,376.616 380,374.5C 380.497,372.19 380.663,369.857 380.5,367.5C 382.179,367.715 383.179,367.048 383.5,365.5 Z"/></g>
<g><path style="opacity:1" fill="#493156" d="M 424.5,374.5 C 427.707,375.026 430.207,376.692 432,379.5C 434.494,389.321 435.161,399.321 434,409.5C 431.239,412.533 428.073,413.2 424.5,411.5C 424.013,408.285 423.013,407.952 421.5,410.5C 417.057,412.466 412.39,412.966 407.5,412C 406.058,411.623 405.058,410.79 404.5,409.5C 405.496,409.586 406.329,409.252 407,408.5C 409.47,410.487 412.303,410.987 415.5,410C 418.524,406.802 422.191,405.802 426.5,407C 427.522,409.316 429.022,409.816 431,408.5C 431.167,404.667 431.333,400.833 431.5,397C 431.432,392.648 430.766,388.481 429.5,384.5C 430.309,382.929 430.643,381.262 430.5,379.5C 429.167,379.5 427.833,379.5 426.5,379.5C 426.169,377.678 425.502,376.011 424.5,374.5 Z"/></g>
<g><path style="opacity:0.961" fill="#917c98" d="M 261.5,410.5 C 263.265,411.461 265.265,411.795 267.5,411.5C 264.229,413.093 261.396,412.426 259,409.5C 257.259,410.758 255.426,411.758 253.5,412.5C 255.506,408.346 258.173,407.68 261.5,410.5 Z"/></g>
<g><path style="opacity:1" fill="#300b48" d="M 359.5,411.5 C 355.329,410.291 351.163,410.291 347,411.5C 344.296,410.413 342.13,408.746 340.5,406.5C 345.96,403.277 351.626,402.777 357.5,405C 356.167,405.667 356.167,406.333 357.5,407C 358.938,407.219 360.271,407.719 361.5,408.5C 360.388,409.265 359.721,410.265 359.5,411.5 Z"/></g>
<g><path style="opacity:0.906" fill="#664f72" d="M 98.5,406.5 C 95.0733,410.797 90.5733,413.131 85,413.5C 82.0614,412.872 79.2281,412.205 76.5,411.5C 84.4688,412.742 91.3021,410.742 97,405.5C 97.3826,406.056 97.8826,406.389 98.5,406.5 Z"/></g>
<g><path style="opacity:1" fill="#472b58" d="M 119.5,397.5 C 122.833,398.167 126.167,398.833 129.5,399.5C 129.5,400.5 129.5,401.5 129.5,402.5C 127.516,402.383 125.85,403.05 124.5,404.5C 125.325,405.386 126.325,405.719 127.5,405.5C 127.402,408.248 128.402,408.914 130.5,407.5C 130.5,408.167 130.5,408.833 130.5,409.5C 124.716,413.685 118.383,414.518 111.5,412C 109.934,411.392 108.6,410.558 107.5,409.5C 104.874,406.982 104.874,404.316 107.5,401.5C 108.333,401.167 109.167,400.833 110,400.5C 112.962,401.987 116.129,402.987 119.5,403.5C 121.299,403.423 122.966,402.923 124.5,402C 123.178,400.024 121.512,398.524 119.5,397.5 Z"/></g>
<g><path style="opacity:1" fill="#300b48" d="M 107.5,409.5 C 107.481,407.94 107.148,406.44 106.5,405C 107.337,403.413 108.67,402.58 110.5,402.5C 114.422,404.267 118.422,405.767 122.5,407C 123.357,407.689 124.023,408.522 124.5,409.5C 118.595,409.805 112.929,409.805 107.5,409.5 Z"/></g>
<g><path style="opacity:0.212" fill="#a598a7" d="M 240.5,409.5 C 242.027,409.427 243.027,410.094 243.5,411.5C 241.973,411.573 240.973,410.906 240.5,409.5 Z"/></g>
<g><path style="opacity:0.051" fill="#c5b5d2" d="M 424.5,411.5 C 423.609,410.89 422.609,410.557 421.5,410.5C 423.013,407.952 424.013,408.285 424.5,411.5 Z"/></g>
<g><path style="opacity:0.573" fill="#5d4c62" d="M 398.5,404.5 C 401.309,407.423 400.975,409.923 397.5,412C 393.311,412.812 389.311,412.645 385.5,411.5C 389.226,411.823 392.893,411.489 396.5,410.5C 398.104,408.821 398.771,406.821 398.5,404.5 Z"/></g>
</svg>
